<svg xmlns="http://www.w3.org/2000/svg" xmlns:xlink="http://www.w3.org/1999/xlink">
	<symbol id="facebook" viewBox="0 0 30 30">
		<path d="M15 30A15 15 0 014.394 4.394a15 15 0 0121.213 21.213A14.9 14.9 0 0115 30zm-3.867-17.924v2.934h1.638v8.324h3.467V15.01h2.325l.3-2.933h-2.63v-1.734a.8.8 0 01.248-.647.738.738 0 01.476-.152h1.867V6.686l-2.572-.019a3.674 3.674 0 00-2.171.61 2.944 2.944 0 00-1.048 1.391 4.131 4.131 0 00-.267 1.5v1.9z" stroke="none" />
	</symbol>
	<symbol id="instagram" viewBox="0 0 30 30">
		<path d="M15 30A15 15 0 014.394 4.393a15 15 0 1121.213 21.214A14.9 14.9 0 0115 30zM11.769 6.654a5.046 5.046 0 00-5.041 5.041v6.651a5.046 5.046 0 005.041 5.039h6.651a5.045 5.045 0 005.039-5.039V11.7a5.046 5.046 0 00-5.039-5.041zm6.651 15.152h-6.651a3.465 3.465 0 01-3.462-3.46V11.7a3.466 3.466 0 013.462-3.462h6.651a3.465 3.465 0 013.46 3.462v6.651a3.464 3.464 0 01-3.46 3.456zm-3.3-10.81a4.132 4.132 0 104.132 4.132A4.136 4.136 0 0015.122 11zm4.373-1.261a.984.984 0 10.984.984.985.985 0 00-.982-.984zm-4.373 8.04a2.647 2.647 0 112.646-2.647 2.65 2.65 0 01-2.644 2.648z" stroke="none"/>
	</symbol>
	<symbol id="linkedin" viewBox="0 0 30 30">
		<path d="M15 30A15 15 0 014.394 4.393a15 15 0 1121.213 21.214A14.9 14.9 0 0115 30zm3.435-15.514c1.382 0 1.672 1.221 1.672 2.245V21.8a.244.244 0 00.244.244h2.814a.244.244 0 00.244-.244v-5.45a4.828 4.828 0 00-1.086-3.379 3.574 3.574 0 00-2.716-1.091 3.264 3.264 0 00-2.976 1.641v-1.163a.245.245 0 00-.244-.246h-2.806a.246.246 0 00-.176.073.241.241 0 00-.07.174c.033 1.658 0 9.123 0 9.44a.24.24 0 00.069.172.246.246 0 00.175.072h2.813a.244.244 0 00.244-.244V16.5a2.18 2.18 0 01.11-.805 1.812 1.812 0 011.689-1.209zm-9.987-2.373a.245.245 0 00-.244.246V21.8a.244.244 0 00.244.244h2.813a.245.245 0 00.245-.244v-9.442a.246.246 0 00-.245-.246zm1.308-4.8a1.767 1.767 0 101.768 1.767 1.769 1.769 0 00-1.769-1.764z" stroke="none"/>
	</symbol>
	<symbol id="twitter" viewBox="0 0 30 30">
		<path d="M15 30A15 15 0 014.393 4.394a15 15 0 0121.213 21.214A14.9 14.9 0 0115 30zm-8.342-9.751a9.529 9.529 0 002.476 1.122 9.8 9.8 0 002.781.4 9.982 9.982 0 004.171-.876 9.31 9.31 0 003.048-2.285A10.29 10.29 0 0021 15.486a9.949 9.949 0 00.628-3.429v-.438a7.2 7.2 0 001.715-1.79 6.984 6.984 0 01-1.981.552 3.542 3.542 0 00.924-.809 3.339 3.339 0 00.581-1.1 6.684 6.684 0 01-2.171.838 3.394 3.394 0 00-2.5-1.086 3.307 3.307 0 00-1.7.467 3.466 3.466 0 00-1.248 1.247 3.351 3.351 0 00-.457 1.715 3.931 3.931 0 00.077.78 9.691 9.691 0 01-3.943-1.066A9.774 9.774 0 017.82 8.852a3.418 3.418 0 00-.457 1.714 3.367 3.367 0 00.409 1.629 3.462 3.462 0 001.115 1.229 3.222 3.222 0 01-1.562-.438v.058a3.594 3.594 0 00.372 1.514 3.417 3.417 0 00.981 1.2 3.322 3.322 0 001.391.638 3.527 3.527 0 01-.9.114 3.476 3.476 0 01-.629-.057 3.316 3.316 0 001.2 1.685 3.441 3.441 0 001.981.7 7.13 7.13 0 01-1.981 1.066 6.841 6.841 0 01-2.267.381 8.163 8.163 0 01-.815-.036z" stroke="none"/>
	</symbol>
	<symbol id="youtube" viewBox="0 0 30 30">
		<path d="M15 30A15 15 0 014.393 4.394a15 15 0 1121.214 21.211A14.9 14.9 0 0115 30zm-.212-16.324c-.8 0-1.571.009-2.3.025-1.125.025-1.942.06-2.428.1a1.973 1.973 0 00-1.162.448 2.085 2.085 0 00-.6 1.124 14.661 14.661 0 00-.219 2.743 22.023 22.023 0 00.121 3.07 4.806 4.806 0 00.18.7 2.92 2.92 0 00.239.562 1.476 1.476 0 00.562.486 3.45 3.45 0 00.961.258c.408.05 1 .088 1.762.114.521.017 1.26.025 2.2.025.492 0 1.044 0 1.567-.006 1.731-.013 2.89-.032 3.447-.057.51-.038.872-.073 1.076-.105a1.954 1.954 0 00.562-.18 1.672 1.672 0 00.752-.753 4.377 4.377 0 00.352-1.5 22.957 22.957 0 00.058-2.647c-.013-1.015-.038-1.663-.077-1.981a3.58 3.58 0 00-.457-1.534 1.61 1.61 0 00-.99-.685 32.173 32.173 0 00-4.381-.2c-.413-.005-.828-.007-1.225-.007zm.175-5.476a1.418 1.418 0 00-.333.04 1.039 1.039 0 00-.562.334 1.477 1.477 0 00-.22.352 1.811 1.811 0 00-.085.543c-.013.2-.019.571-.019 1.133s.006.927.019 1.115a1.688 1.688 0 00.085.533 1.417 1.417 0 00.238.343.987.987 0 00.457.323 1.781 1.781 0 00.4.086h.038a1.268 1.268 0 00.363-.068 1.181 1.181 0 00.467-.286 1.321 1.321 0 00.314-.438 3.2 3.2 0 00.058-.448c.013-.189.019-.594.019-1.171 0-.513-.007-.895-.019-1.1a2.2 2.2 0 00-.076-.543A1.3 1.3 0 0015.9 8.6a1.1 1.1 0 00-.562-.343 1.446 1.446 0 00-.375-.057zm1.9.031l.019 2.115c0 1.006.006 1.607.019 1.837a1.389 1.389 0 00.077.468.6.6 0 00.209.238.654.654 0 00.324.067.957.957 0 00.353-.057 1.176 1.176 0 00.352-.267l.228-.191v.476h.877V8.234h-.877v3.6l-.171.171a.54.54 0 01-.343.212.183.183 0 01-.115-.04 1 1 0 01-.057-.39c-.013-.243-.019-.8-.019-1.61V8.234zm-5.727-1.559l-.457.019 1.143 3.658v2.57h.934v-2.552L13.9 6.729a.022.022 0 000-.02c-.008-.014-.033-.023-.077-.027-.065-.006-.2-.01-.4-.01h-.476l-.4 1.409a6.878 6.878 0 01-.266.953c-.015 0-.123-.389-.324-1.143s-.314-1.156-.334-1.181a1.359 1.359 0 00-.485-.038zM19.5 21.547a1.125 1.125 0 01-.571-.133 1.184 1.184 0 01-.591-.666 1.137 1.137 0 01-.076-.391 27.059 27.059 0 01-.038-1.038c0-.556.006-.948.019-1.2a2.334 2.334 0 01.124-.628 1.041 1.041 0 01.276-.381 1.156 1.156 0 01.381-.239 1.39 1.39 0 01.457-.067h.1a1.059 1.059 0 01.424.08 1.223 1.223 0 01.419.323 1.286 1.286 0 01.276.506 3.9 3.9 0 01.077.923v.685H19.1v.533a4.1 4.1 0 00.019.476.958.958 0 00.057.247.44.44 0 00.238.2.309.309 0 00.1.017.287.287 0 00.167-.056.392.392 0 00.162-.209 1.347 1.347 0 00.038-.371v-.286h.914l-.037.4a1.634 1.634 0 01-.181.753 1.062 1.062 0 01-.505.428 1.461 1.461 0 01-.572.094zm-.016-3.977a.317.317 0 00-.26.111 1 1 0 00-.124.591v.343h.8v-.343c0-.417-.093-.648-.276-.685a.7.7 0 00-.143-.016zm-2.627 3.969a.819.819 0 01-.328-.058 1.351 1.351 0 01-.343-.238l-.191-.172v.419h-.838v-6.21h.838v2l.229-.191a1.127 1.127 0 01.342-.238.835.835 0 01.334-.086.61.61 0 01.314.105.689.689 0 01.247.238 1.725 1.725 0 01.172.647c.025.264.031.815.019 1.638 0 .727-.007 1.195-.019 1.352a1.272 1.272 0 01-.095.4.693.693 0 01-.248.3.81.81 0 01-.372.085zm-.418-3.98a.129.129 0 00-.043.007c-.038.012-.1.037-.191.076l-.21.114v2.838l.172.1a.61.61 0 00.257.095.332.332 0 00.2-.095l.133-.115.019-1.3v-1.065a1.774 1.774 0 00-.067-.467.255.255 0 00-.161-.161.3.3 0 00-.11-.026zm-3.739 3.98h-.06a.637.637 0 01-.371-.105.539.539 0 01-.181-.267 2.615 2.615 0 01-.057-.685 46.27 46.27 0 01-.018-1.618v-2h.876v1.885c0 .869 0 1.374.009 1.59a.755.755 0 00.067.39.182.182 0 00.129.061.16.16 0 00.033 0 .66.66 0 00.257-.191l.21-.209v-3.527h.876v4.627h-.876v-.476l-.21.191a1.851 1.851 0 01-.352.267.71.71 0 01-.332.067zm-1.561-.049H10.2v-5.333h-.969v-.876h2.914v.876h-1.009v5.332zm3.828-9.276a.292.292 0 01-.257-.095.938.938 0 01-.085-.419c-.013-.19-.019-.551-.019-1.105a7.992 7.992 0 01.057-1.41.355.355 0 01.629 0 8.3 8.3 0 01.057 1.429c0 .452-.007.795-.019.99a2.061 2.061 0 01-.057.438.2.2 0 01-.124.143.564.564 0 01-.186.029z" stroke="none" />
	</symbol>

	<symbol id="alarm-bell" viewBox="0 0 20.624 22.674">
		<path d="M.059 19.08a.814.814 0 00.746.5h5.913a3.619 3.619 0 007.16 0h5.926a.376.376 0 00.122-.014.825.825 0 00.651-.515.8.8 0 00-.2-.854l-.041-.041a3.8 3.8 0 01-.719-1.22 12.113 12.113 0 01-.759-4.6c0-4.529-1.709-6.916-3.133-8.123a7.2 7.2 0 00-2.522-1.383 3.2 3.2 0 00-.681-1.921A2.718 2.718 0 0010.325 0a2.75 2.75 0 00-2.183.909 3.163 3.163 0 00-.692 1.966 7.269 7.269 0 00-2.522 1.356c-2.617 2.143-3.16 5.587-3.16 8.082a11.921 11.921 0 01-.777 4.557 4.982 4.982 0 01-.746 1.315.814.814 0 00-.186.895zm10.252 1.967a2.022 2.022 0 01-1.926-1.465h3.851a2.022 2.022 0 01-1.925 1.465zm-6.92-8.734c0-7.3 4.773-7.987 4.963-8.015a.829.829 0 00.556-.312.841.841 0 00.163-.624 2.007 2.007 0 01.3-1.437 1.1 1.1 0 01.949-.339 1.162 1.162 0 01.963.339 1.984 1.984 0 01.285 1.383.792.792 0 00.149.624.816.816 0 00.556.325 5.3 5.3 0 012.427 1.193c1.7 1.424 2.549 3.743 2.549 6.889a12.786 12.786 0 001.058 5.628h-16a13.394 13.394 0 001.082-5.654z" stroke="none"/>
	</symbol>
	<symbol id="audio-headphones" viewBox="0 0 21.508 20.382">
		<path d="M18.728 8.177H17.2a1.685 1.685 0 00-1.7 1.641v8.9a1.7 1.7 0 001.7 1.654h1.546c.041 0 .095-.014.136-.014.434-.081 2.631-.746 2.631-6.319a12.079 12.079 0 00-.434-3.512.794.794 0 00.027-.176 10.347 10.347 0 00-20.694 0 .792.792 0 00.081.353A12.734 12.734 0 000 14.51a8.571 8.571 0 001.071 4.855 2.163 2.163 0 001.7 1.017h1.56a1.7 1.7 0 001.7-1.654v-8.9a1.708 1.708 0 00-1.709-1.654H2.766a.462.462 0 00-.136.014 1.57 1.57 0 00-.353.109 8.717 8.717 0 0116.938-.041 1.611 1.611 0 00-.475-.081zM2.916 9.804h1.4a.589.589 0 01.068.014v8.9c0 .014-.054.027-.068.027H2.78c-.312-.136-1.153-.949-1.153-4.245 0-3.733 1.045-4.56 1.289-4.696zm16.964 4.245c0 3.756-1.044 4.57-1.288 4.706H17.2a.349.349 0 01-.068-.027v-8.9c0-.014.054-.014.068-.014h1.546c.294-.01 1.134.94 1.134 4.235z" stroke="none"/>
	</symbol>
	<symbol id="backward-arrow" viewBox="0 0 21.133 23.872">
		<path d="M11.839 22.665a.829.829 0 00.2 1.031.782.782 0 00.5.176.818.818 0 00.542-.2 46.675 46.675 0 004.679-4.909c3.092-3.811 4.068-6.7 2.875-8.611-1.044-1.682-3.011-2.861-5.845-3.526a20.384 20.384 0 00-3.811-.5V.819a.821.821 0 00-1.41-.57L.226 10.013a.9.9 0 00-.231.61.759.759 0 00.285.583l9.235 7.865a.823.823 0 00.841.136.838.838 0 00.5-.692l.325-4.909a12.078 12.078 0 011.343-.081c.651 0 2.2.081 2.332.881.068.366.054 1.546-1.356 4.8a43.561 43.561 0 01-1.661 3.459zm.719-10.781a14.569 14.569 0 00-2.265.2.808.808 0 00-.651.746l-.271 3.946-7.35-6.252 7.35-7.675v4.072a.789.789 0 00.244.583.8.8 0 00.583.231h.081c.719 0 7.011.095 8.991 3.282.746 1.207-.231 3.594-2.753 6.713-.393.488-.787.949-1.193 1.383.963-2.332 1.343-3.973 1.166-5s-1.003-2.229-3.932-2.229z" stroke="none" />
	</symbol>
	<symbol id="beaker" viewBox="0 0 19.699 20">
		<path d="M2 20a2 2 0 01-1.682-3.076L6.35 7.478V4.111a1 1 0 01-1-1V1a1 1 0 011-1h7a1 1 0 011 1v2.111a1 1 0 01-1 1v3.367l6.033 9.446A2 2 0 0117.7 20z" fill="none" /><path d="M17.696 18.5a.483.483 0 00.439-.26.482.482 0 00-.018-.509l-6.032-9.446-.236-.369V2.611h1V1.5H6.85v1.112h1V7.917l-.235.37-6.033 9.445a.482.482 0 00-.017.509c.053.097.18.26.438.26h15.693m0 1.5H2.003C.423 20-.533 18.255.318 16.924L6.35 7.478V4.111a1 1 0 01-1-1V1a1 1 0 011-1h6.999a1 1 0 011 1V3.11a1 1 0 01-1 1v3.367l6.033 9.446c.85 1.33-.106 3.076-1.686 3.076z" stroke="none" />
	</symbol>
	<symbol id="blank-paper-sheet" viewBox="0 0 17.629 21.291">
		<path d="M.814 21.291h16a.816.816 0 00.814-.814V6.658a.809.809 0 00-.258-.6L11.079.217A.84.84 0 0010.523 0H.813a.816.816 0 00-.814.814v19.663a.816.816 0 00.815.814zm15.188-14.28v.041h-5.56V1.844zM1.627 1.627h7.187v6.238a.816.816 0 00.814.814h6.374v10.984H1.627z" stroke="none"/>
	</symbol>
	<symbol id="blocked-padlock" viewBox="0 0 18.172 22.375">
		<path d="M3.363 22.376h11.445a3.328 3.328 0 003.363-3.322v-7.432a3.29 3.29 0 00-2.441-3.214V6.062A6.014 6.014 0 009.764 0H8.408a6.121 6.121 0 00-6.1 6.062v2.346a3.331 3.331 0 00-2.305 3.214v7.431a3.328 3.328 0 003.36 3.323zM8.408 1.627h1.356a4.382 4.382 0 014.34 4.434v2.21H3.933V6.062a4.5 4.5 0 014.475-4.435zm8.137 17.385a1.73 1.73 0 01-1.736 1.736H3.363a1.73 1.73 0 01-1.736-1.736v-7.377A1.73 1.73 0 013.363 9.9h11.445a1.73 1.73 0 011.736 1.736v7.377z" stroke="none"/><path d="M8.818 18.714a.816.816 0 00.814-.814v-2.577a.814.814 0 10-1.627 0V17.9a.816.816 0 00.813.814z" stroke="none"/>
	</symbol>
	<symbol id="building-house" viewBox="0 0 22.918 23.867">
		<path d="M9.899 12.883H8.411a.816.816 0 00-.814.814v1.356a.816.816 0 00.814.814h1.492a.816.816 0 00.814-.814v-1.356a.816.816 0 00-.818-.814z" stroke="none"/><path d="M15.323 15.053v-1.356a.816.816 0 00-.814-.814h-1.356a.816.816 0 00-.814.814v1.356a.816.816 0 00.814.814h1.356a.816.816 0 00.814-.814z" stroke="none"/><path d="M9.899 8.408H8.411a.816.816 0 00-.814.814v1.356a.816.816 0 00.814.814h1.492a.816.816 0 00.814-.814V9.222a.816.816 0 00-.818-.814z" stroke="none"/><path d="M13.154 11.391h1.356a.816.816 0 00.814-.814V9.221a.816.816 0 00-.814-.814h-1.356a.816.816 0 00-.814.814v1.356a.816.816 0 00.814.814z" stroke="none"/><path d="M9.899 4.068H8.411a.816.816 0 00-.814.814v1.356a.816.816 0 00.814.814h1.492a.816.816 0 00.814-.814V4.882a.816.816 0 00-.818-.814z" stroke="none"/><path d="M13.154 7.051h1.356a.816.816 0 00.814-.814V4.882a.816.816 0 00-.814-.814h-1.356a.816.816 0 00-.814.814v1.356a.816.816 0 00.814.813z" stroke="none"/><path d="M18.984 4.353V.814A.816.816 0 0018.172 0H4.746a.816.816 0 00-.814.814v3.539l-3.7 3.824a.8.8 0 00-.231.57v14.307a.816.816 0 00.814.814h7.459a.8.8 0 00.692-.393.821.821 0 00.393-.692v-3.12h4.2v3.119a.83.83 0 00.583.787.8.8 0 00.637.3h7.325a.816.816 0 00.814-.814V8.747a.8.8 0 00-.231-.57zM1.627 9.072l2.305-2.387V22.24H1.627zm6.916 8.964a.816.816 0 00-.814.814v3.39h-2.17V1.627h11.8V22.24h-2.175v-3.39a.816.816 0 00-.814-.814H8.543zm12.747 4.2h-2.306V6.686l2.305 2.387z" stroke="none"/>
	</symbol>
	<symbol id="cancel-button" viewBox="0 0 23.894 23.894">
		<path d="M6.387 17.507a.8.8 0 00.57.244.781.781 0 00.57-.244l4.421-4.421 4.421 4.421a.8.8 0 00.57.244.781.781 0 00.57-.244.827.827 0 000-1.153l-4.407-4.407 4.407-4.421a.827.827 0 000-1.153.814.814 0 00-1.153 0l-4.407 4.421-4.421-4.407A.815.815 0 106.375 7.54l4.421 4.407-4.407 4.421a.786.786 0 00-.002 1.139z" stroke="none"/><path d="M11.947 23.894A11.947 11.947 0 100 11.947a11.957 11.957 0 0011.947 11.947zm0-22.267a10.32 10.32 0 11-10.32 10.32 10.325 10.325 0 0110.32-10.32z" stroke="none"/>
	</symbol>
	<symbol id="cellphone-backside" viewBox="0 0 12.205 20.884">
		<path d="M12.205 2.848A2.847 2.847 0 009.357 0H2.848A2.847 2.847 0 000 2.848v15.188a2.847 2.847 0 002.848 2.848h6.509a2.847 2.847 0 002.848-2.848zm-1.627 15.188a1.215 1.215 0 01-1.22 1.22h-6.51a1.215 1.215 0 01-1.22-1.22V2.848a1.215 1.215 0 011.22-1.22h6.509a1.215 1.215 0 011.22 1.22z" stroke="none"/><path d="M5.967 15.324a.759.759 0 00-.57.244.837.837 0 00-.244.57.781.781 0 00.244.57.837.837 0 00.57.244.781.781 0 00.57-.244.837.837 0 00.244-.57.781.781 0 00-.244-.57.759.759 0 00-.57-.244z" stroke="none"/>
	</symbol>
	<symbol id="chat-speech-balloon" viewBox="0 0 22.755 21.087">
		<path d="M11.378 0C5.1 0 0 4 0 8.91a8.184 8.184 0 003.729 6.6l-.814 4.624a.8.8 0 00.325.8.76.76 0 00.475.149.719.719 0 00.38-.095l6.005-3.223c.434.041.854.054 1.275.054 6.279 0 11.378-4 11.378-8.91S17.656 0 11.378 0zm0 16.178c-.434 0-.9-.027-1.356-.068a.834.834 0 00-.475.095L4.8 18.755l.61-3.485a.806.806 0 00-.366-.827A6.7 6.7 0 011.613 8.91c0-4.014 4.38-7.282 9.75-7.282s9.75 3.268 9.75 7.282-4.365 7.265-9.735 7.265z" stroke="none"/>
	</symbol>
	<symbol id="checking-mark-circle" viewBox="0 0 23.894 23.894">
		<path d="M17.223 7.226l-6.943 7.73-3.661-3.512a.817.817 0 10-1.127 1.182l4.258 4.1a.8.8 0 00.57.231h.027a.814.814 0 00.57-.271l7.513-8.354a.816.816 0 00-.068-1.153.788.788 0 00-1.139.047z" stroke="none"/><path d="M11.947 0a11.947 11.947 0 1011.947 11.947A11.957 11.957 0 0011.947 0zm0 22.267a10.32 10.32 0 1110.32-10.32 10.325 10.325 0 01-10.32 10.32z" stroke="none"/>
	</symbol>
	<symbol id="chemistry-filter" viewBox="0 0 20.361 19.728">
		<path d="M20.275.392a.776.776 0 00-.67-.392H.762a.759.759 0 00-.663.379.742.742 0 000 .759l6.417 11.078v6.753a.761.761 0 00.759.759h5.058a.761.761 0 00.759-.759v-6.715l7.145-11.091a.765.765 0 00.038-.771zm-8.576 11.23a.808.808 0 00-.126.417v6.168h-3.54v-6.2a.772.772 0 00-.1-.379L2.077 1.518h16.136z" stroke="none"/>
	</symbol>
	<symbol id="circular-wall-clock" viewBox="0 0 19.298 19.298">
		<path d="M9.649 19.3A9.649 9.649 0 100 9.649 9.655 9.655 0 009.649 19.3zm0-17.781a8.132 8.132 0 11-8.131 8.13 8.142 8.142 0 018.131-8.131z" stroke="none"/><path d="M8.423 11.255l3.25 2.529a.809.809 0 00.468.164.737.737 0 00.594-.291.751.751 0 00-.139-1.062l-2.947-2.3v-5.2a.759.759 0 00-1.518 0v5.564a.755.755 0 00.292.596z" stroke="none"/>
	</symbol>
	<symbol id="closed-envelope-email" viewBox="0 0 19.475 15.934">
		<path d="M19.475.759A.761.761 0 0018.716 0H.759A.761.761 0 000 .759v14.416a.761.761 0 00.759.759h17.957a.761.761 0 00.759-.759zM1.518 14.417V5.425l7.626 6.563a.688.688 0 00.481.177.885.885 0 00.519-.177l7.815-6.538v8.966zm16.44-12.9v1.96c-.126.013-.063.025-.076.025L9.636 10.42 1.543 3.465c-.013-.013-.025-.025-.025-.038v-1.91z" stroke="none"/>
	</symbol>
	<symbol id="cloud-data-storage" viewBox="0 0 22.795 16.035">
		<path d="M19.982 8.422a8.321 8.321 0 00-.215-2.921A7.2 7.2 0 0014.43.354 7.706 7.706 0 0012.179 0c-3.68 0-5.577 3.174-6.247 5.337a8.882 8.882 0 00-.632-.025A4.955 4.955 0 00.153 9.573a5.076 5.076 0 00.9 4.464 5.816 5.816 0 004.287 2h13.415a3.82 3.82 0 003.857-2.58c.789-2.607-1.125-4.301-2.63-5.035zm1.176 4.6a2.216 2.216 0 01-2.4 1.492H5.338a4.3 4.3 0 01-3.111-1.442 3.657 3.657 0 01-.582-3.2 3.435 3.435 0 013.667-3.06 4.883 4.883 0 011.012.1.721.721 0 00.582-.1.806.806 0 00.341-.493c.013-.051 1.037-4.818 4.945-4.818a6.486 6.486 0 011.821.291 5.831 5.831 0 014.4 6.917.759.759 0 00.481.885c.127.055 2.96 1.105 2.264 3.432z" stroke="none"/>
	</symbol>
	<symbol id="cloud-upload-arrow" viewBox="0 0 22.805 19.818">
		<path d="M11.496 19.818a.761.761 0 00.759-.759V9.019l3.111 2.77a.761.761 0 001.012-1.138l-4.382-3.884a.745.745 0 00-1.024.025l-4.059 3.882a.76.76 0 101.05 1.1l2.757-2.643v9.94a.778.778 0 00.776.747z" stroke="none"/><path d="M19.993 8.446a8.389 8.389 0 00-.215-2.934 7.208 7.208 0 00-5.337-5.16 6.281 6.281 0 00-5.21.443 8.236 8.236 0 00-3.288 4.54 5.851 5.851 0 00-3.554.784 5.233 5.233 0 00-2.238 3.5 5.147 5.147 0 00.911 4.5 5.781 5.781 0 004.274 2.011h2.112a.759.759 0 100-1.518h-2.1a4.279 4.279 0 01-3.1-1.454 3.761 3.761 0 01-.607-3.237A3.744 3.744 0 013.201 7.4a4.773 4.773 0 013.136-.468.73.73 0 00.582-.1.746.746 0 00.329-.481 7.157 7.157 0 012.77-4.237 4.827 4.827 0 014-.291 5.843 5.843 0 014.4 6.93.759.759 0 00.481.885c.126.038 2.972 1.1 2.264 3.452-.481 1.619-2.441 1.555-2.517 1.555h-2.852a.759.759 0 100 1.518h2.947a3.938 3.938 0 003.882-2.643c.784-2.618-1.138-4.325-2.63-5.074z" stroke="none"/>
	</symbol>
	<symbol id="computer-mouse-cursor" viewBox="0 0 15.688 20.698">
		<path d="M15.68 10.036a.757.757 0 00-.341-.746L1.163.122A.737.737 0 00.392.1.776.776 0 000 .77v16.209a.779.779 0 00.417.683.758.758 0 00.8-.076l4.022-3.01 3.68 5.767a.757.757 0 00.645.354.81.81 0 00.379-.1l3.756-2.175a.764.764 0 00.354-.481.721.721 0 00-.1-.582l-3.427-5.4 4.629-1.3a.766.766 0 00.525-.623zm-6.563.733a.788.788 0 00-.506.455.765.765 0 00.063.683l3.541 5.59-2.435 1.417-3.71-5.842a.754.754 0 00-.506-.341.519.519 0 00-.139-.013.758.758 0 00-.455.152l-3.465 2.592V2.158l11.609 7.5z" stroke="none"/>
	</symbol>
	<symbol id="copy-file" viewBox="0 0 18.211 20.993">
		<path d="M13.494 0H4.806a.761.761 0 00-.759.759v3.288H.759A.761.761 0 000 4.806v15.428a.761.761 0 00.759.759h12.774a.761.761 0 00.759-.759V16.82h3.162a.761.761 0 00.759-.759V4.742a.745.745 0 00-.215-.531L14.033.228A.735.735 0 0013.494 0zm-.721 19.475H1.518V5.564h2.529v10.5a.761.761 0 00.759.759h7.967v2.656zM5.564 15.3V1.518h6.576v4.3a.761.761 0 00.759.759h3.794V15.3zM16.693 5.058h-3.035V2l3.035 3.06z" stroke="none"/>
	</symbol>
	<symbol id="cross" viewBox="0 0 13.414 13.414">
		<g fill="none" stroke-width="2"><path d="M12.707.707l-12 12"/><path d="M.707.707l12 12"/></g>
	</symbol>
	<symbol id="danger-sign" viewBox="0 0 23.626 20.651">
		<path d="M12.473.379a.76.76 0 00-1.315 0L.1 19.513a.742.742 0 000 .759.759.759 0 00.658.379h22.11a.761.761 0 00.759-.759.817.817 0 00-.126-.43zM2.077 19.134l9.738-16.861 9.738 16.857z" stroke="none"/><path d="M11.043 7.496v5.817a.759.759 0 101.518 0V7.496a.759.759 0 00-1.518 0z" stroke="none"/><path d="M11.802 15.087a.761.761 0 00-.759.759v.506a.759.759 0 001.518 0v-.509a.761.761 0 00-.759-.756z" stroke="none"/>
	</symbol>
	<symbol id="delivery-truck" viewBox="0 0 21.372 18.451">
		<path d="M.759 14.923h1.884v.1a3.427 3.427 0 006.854.013 2.9 2.9 0 00-.038-.493h3.592c-.013.126-.025.266-.038.4a3.365 3.365 0 00.936 2.441 3.431 3.431 0 002.39 1.062h.089a3.4 3.4 0 003.427-3.326 3.724 3.724 0 00-.038-.582h.746a.817.817 0 00.809-.771V.784A.828.828 0 0020.563 0H7.082a.775.775 0 00-.759.784v1.2L2.77 1.897a.755.755 0 00-.721.468L.063 7.132A.75.75 0 000 7.423v6.74a.761.761 0 00.759.76zm.759-1.518v-4.3H6.2a.431.431 0 00.126-.013v2.517a1.87 1.87 0 00-.266-.013 3.419 3.419 0 00-3.01 1.8H1.518zm4.54 3.528a1.91 1.91 0 111.91-1.91 1.916 1.916 0 01-1.91 1.91zm10.319 0a1.88 1.88 0 01-1.328-.594 1.942 1.942 0 01-.519-1.366 1.9 1.9 0 011.91-1.859h.051a1.91 1.91 0 01-.114 3.819zm3.478-15.416v11.509h-.506a.52.52 0 00-.139.013 4.112 4.112 0 00-.291-.367 3.378 3.378 0 00-2.39-1.062h-.089a3.347 3.347 0 00-2.782 1.416H8.827a3.426 3.426 0 00-.986-.923V1.518zm-16.6 1.91l3.073.063V7.6a.431.431 0 00-.126-.013H1.518v-.012z" stroke="none"/>
	</symbol>
	<symbol id="dialogue-balloon" viewBox="0 0 21.397 19.791">
		<path d="M2.453 10.56l-.518 2.908a.742.742 0 00.3.746.709.709 0 00.443.139.671.671 0 00.354-.089l3.038-1.63c.658 2.845 3.819 5.008 7.6 5.008q.4 0 .8-.038l3.908 2.1a.734.734 0 00.354.089.8.8 0 00.443-.139.742.742 0 00.3-.746l-.519-2.909a5.565 5.565 0 002.444-4.453c0-2.833-2.491-5.3-5.969-5.944-.329-3.124-3.655-5.6-7.7-5.6C3.465 0 0 2.732 0 6.095a5.6 5.6 0 002.453 4.465zm17.439.986a4.194 4.194 0 01-2.162 3.462.773.773 0 00-.341.771l.329 1.846-2.732-1.467a.777.777 0 00-.443-.089c-.291.025-.594.051-.873.051-3.124 0-5.716-1.707-6.146-3.92h.2c3.819 0 6.993-2.2 7.613-5.071 2.671.56 4.556 2.368 4.556 4.417zM7.739 1.53c3.427 0 6.209 2.049 6.209 4.578s-2.782 4.578-6.209 4.578a6.862 6.862 0 01-.873-.051.778.778 0 00-.443.089l-2.73 1.467.329-1.846a.752.752 0 00-.341-.771 4.194 4.194 0 01-2.163-3.466C1.53 3.592 4.312 1.53 7.739 1.53z" stroke="none"/>
	</symbol>
	<symbol id="directional-down-arrow" viewBox="0 0 16.161 21.811">
		<path d="M8.074 0a.875.875 0 00-.872.872v17.769l-5.671-6.369a.876.876 0 10-1.309 1.163l7.14 8a.863.863 0 00.712.378.883.883 0 00.654-.291l7.212-8.085a.876.876 0 10-1.309-1.163l-5.685 6.383V.872A.875.875 0 008.074 0z" stroke="none"/>
	</symbol>
	<symbol id="down-chevron" viewBox="0 0 19.283 13.497">
		<path d="M8.946 13.148a.872.872 0 001.4 0l8.768-11.749a.874.874 0 10-1.4-1.047l-8.07 10.819L1.574.352A.864.864 0 00.353.178a.864.864 0 00-.174 1.221z" stroke="none"/>
	</symbol>
	<symbol id="download-tray" viewBox="0 0 20.503 22.538">
		<path d="M.872 22.538H19.63a.875.875 0 00.872-.872v-7.852a.873.873 0 00-1.745 0v6.98H1.745v-6.98a.873.873 0 00-1.745 0v7.852a.875.875 0 00.872.872z" stroke="none"/><path d="M10.324 0a.875.875 0 00-.868.872v13.29l-5.54-5.147a.875.875 0 00-1.192 1.28l6.98 6.471a.889.889 0 00.32.189 1.132 1.132 0 00.305.058.882.882 0 00.727-.393l6.878-6.325A.877.877 0 1016.751 9l-5.555 5.119V.872A.875.875 0 0010.324 0z" stroke="none"/>
	</symbol>
	<symbol id="edit-document" viewBox="0 0 21.451 22.702">
		<path d="M15.631.251L6.892 8.99a.937.937 0 00-.262.611l-.058 4.464a.878.878 0 00.262.64.932.932 0 00.611.291h.015l4.319-.087a.9.9 0 00.611-.291l8.812-8.812a.887.887 0 000-1.236L16.881.251a.9.9 0 00-1.25 0zm-4.246 12.883l-3.054.044.044-3.2 4.447-4.449 3.068 3.112zm5.744-5.744l-3.068-3.112L16.242 2.1l3.08 3.08z" stroke="none"/><path d="M9.597 2.781a.873.873 0 000-1.745H.872A.875.875 0 000 1.908v19.921a.875.875 0 00.872.872h16.286a.875.875 0 00.872-.872v-8.143a.873.873 0 00-1.745 0v7.27H1.745V2.781z" stroke="none"/>
	</symbol>
	<symbol id="edit-pencil" viewBox="0 0 22.047 22.078">
		<path d="M13.872.253L.364 13.761a.932.932 0 00-.262.6l-.103 6.874a.814.814 0 00.262.611.868.868 0 00.611.233h.015l6.674-.058a.845.845 0 00.611-.233L21.799 8.163a.887.887 0 000-1.236L15.108.238a.9.9 0 00-1.236.015zM7.183 20.3l-5.424.073.087-5.642 9.016-9.011 5.453 5.453zM17.536 9.952L12.099 4.5l2.4-2.4 5.438 5.453z" stroke="none"/>
	</symbol>
	<symbol id="expand-arrows" viewBox="0 0 20.939 20.939">
		<path d="M0 20.124a.779.779 0 00.814.814h6.093a.873.873 0 100-1.745H2.923L7.9 14.25a.869.869 0 000-1.221.851.851 0 00-1.207 0l-4.948 4.969v-4.26a.873.873 0 00-1.745 0z" stroke="none"/><path d="M12.956 20.066a.875.875 0 00.872.872h6.278a.779.779 0 00.814-.814v-6.18a.873.873 0 00-1.745 0v3.868l-4.74-4.769a.869.869 0 00-1.221 0 .851.851 0 000 1.207l4.973 4.944h-4.391a.869.869 0 00-.84.872z" stroke="none"/><path d="M8.143.872A.875.875 0 007.27 0H.814A.779.779 0 000 .814v6.238a.872.872 0 001.745 0V2.719l4.944 4.973a.829.829 0 00.6.262.861.861 0 00.611-.262.851.851 0 000-1.207l-4.774-4.74H7.27a.866.866 0 00.873-.873z" stroke="none"/><path d="M13.247 7.692a.861.861 0 00.611.262.775.775 0 00.582-.262l4.755-4.769v4.13a.873.873 0 001.745 0V.814A.779.779 0 0020.125 0h-5.918a.873.873 0 100 1.745h3.827l-4.769 4.74a.839.839 0 00-.018 1.207z" stroke="none"/>
	</symbol>
	<symbol id="export-file" viewBox="0 0 21.666 23.701">
		<path d="M21.666 22.829V7.4a.868.868 0 00-.276-.64L14.367.233a.9.9 0 00-.6-.233H2.908a.875.875 0 00-.872.872v9.742a.873.873 0 001.745 0V1.745h8.87v6.689a.875.875 0 00.872.872h6.253a.5.5 0 00.145-.015v12.666H3.781v-3.49a.873.873 0 10-1.745 0v4.362a.875.875 0 00.872.872h17.886a.875.875 0 00.872-.872zm-7.27-20.183l5.278 4.915h-5.278z" stroke="none"/><path d="M0 14.396a.875.875 0 00.872.872H9.96l-2.806 2.5a.873.873 0 00.582 1.527.906.906 0 00.581-.219l4.537-4.042a.86.86 0 00.291-.654.883.883 0 00-.291-.654L8.317 9.684a.876.876 0 00-1.163 1.309l2.85 2.53H.872a.875.875 0 00-.872.873z" stroke="none"/>
	</symbol>
	<symbol id="eye-view" viewBox="0 0 24.787 15.602">
		<path d="M2.885 11.763a13.273 13.273 0 009.51 3.839 13.333 13.333 0 009.51-3.839 13.875 13.875 0 002.806-3.868.836.836 0 000-.7 11.859 11.859 0 00-2.734-3.635 13.856 13.856 0 00-9.67-3.563 13.551 13.551 0 00-9.582 3.577 11.24 11.24 0 00-2.661 3.65.824.824 0 00.015.669 13.524 13.524 0 002.806 3.87zm9.379-9.96a4.246 4.246 0 11-4.246 4.246 4.251 4.251 0 014.246-4.246zm-4.929.843a5.94 5.94 0 00-1.061 3.4 5.991 5.991 0 1010.89-3.427 11.053 11.053 0 015.744 4.944 13.169 13.169 0 01-2.3 3.024 11.392 11.392 0 01-8.23 3.3 11.464 11.464 0 01-8.23-3.315 13.218 13.218 0 01-2.312-3.039 10.656 10.656 0 015.498-4.887z" stroke="none" />
	</symbol>
	<symbol id="floppy-disk-save-file" viewBox="0 0 22.102 22.829">
		<path d="M17.274 0H.872A.875.875 0 000 .872v21.085a.875.875 0 00.872.872H21.23a.875.875 0 00.872-.872V5.947a.839.839 0 00-.185-.538L17.958.334A.891.891 0 0017.274 0zM6.689 1.745h9.161v8.579H6.689zm13.668 19.339H1.745V1.745h3.2v9.466a.8.8 0 00.8.858h11.021a.826.826 0 00.829-.858V2.763l2.763 3.49v14.831z" stroke="none"/><path d="M13.814 4.216a.875.875 0 00-.872-.872h-1.018a.875.875 0 00-.872.872v3.49a.875.875 0 00.872.872h1.018a.875.875 0 00.872-.872z" stroke="none"/>
	</symbol>
	<symbol id="flying-airplane" viewBox="0 0 23.735 23.737">
		<path d="M19.898 1.8L9.964 5.065 8.051 3.081l-.014-.014C6.629 1.66 4.575 0 2.746 0A2.655 2.655 0 00.818.788C.073 1.534-.546 2.884.762 5.122a14.786 14.786 0 002.336 2.884l.014.014 1.972 1.9-3.267 9.961a.848.848 0 00.324.957l3.18 2.195a.838.838 0 001.163-.211l4.784-6.909 1.229 1.187.521 5.867a.839.839 0 00.549.718 1.1 1.1 0 00.3.056.788.788 0 00.591-.253l9.026-9.038a.849.849 0 00-.533-1.45l-5.7-.366-1.323-1.379 6.894-4.77a.838.838 0 00.211-1.168l-2.195-3.18a.828.828 0 00-.94-.337zm-5.741 8.64a.889.889 0 00-.366.605.826.826 0 00.239.675l2.237 2.322a.8.8 0 00.549.253l4.168.268-6.43 6.43-.38-4.376a.868.868 0 00-.253-.535l-2.167-2.1a.91.91 0 00-.675-.239.793.793 0 00-.605.38l-4.89 7.039-1.97-1.351 3.241-9.863a.866.866 0 00-.211-.872L4.308 6.81a14.1 14.1 0 01-2.083-2.533C1.311 2.7 1.846 2.167 2.014 2a.965.965 0 01.732-.3c.957 0 2.49.957 4.094 2.575l2.28 2.366a.81.81 0 00.872.211l9.835-3.222 1.351 1.97z" stroke="none" />
	</symbol>
	<symbol id="folded-newspaper" viewBox="0 0 24.06 22.935">
		<g stroke="none"><path d="M4.151 22.935h16.856a.821.821 0 00.366-.084c.113-.056 2.687-1.337 2.687-3.912V5.767a.847.847 0 00-.844-.844h-2.955V.843a.847.847 0 00-.844-.844H.844A.847.847 0 000 .844v17.912a.8.8 0 00.014.183c.042.168.929 3.996 4.137 3.996zM1.688 1.688h16.885v15.9a.844.844 0 001.688 0V6.613h2.111v12.326a2.966 2.966 0 01-1.59 2.308H4.151c-1.66 0-2.336-2.153-2.462-2.6V1.688z"/><path d="M9.849 5.346a.847.847 0 00-.844-.844h-3.94a.847.847 0 00-.844.844v4.5a.847.847 0 00.844.844h3.94a.847.847 0 00.844-.844zm-3.94.844h2.252v2.812H5.909z"/><path d="M4.784 18.572h10.975a.844.844 0 000-1.688H4.784a.844.844 0 100 1.688z"/><path d="M4.924 14.492h10.689a.844.844 0 100-1.688H4.924a.844.844 0 100 1.688z"/><path d="M12.522 6.331h3.236a.844.844 0 000-1.688h-3.236a.844.844 0 100 1.688z"/><path d="M12.522 10.412h3.236a.844.844 0 000-1.688h-3.236a.844.844 0 100 1.688z"/></g>
	</symbol>
	<symbol id="forward-arrow" viewBox="0 0 21.884 24.766">
		<path d="M10.78.059a.828.828 0 00-.521.788v5.5a22.172 22.172 0 00-3.813.521c-2.87.689-4.868 1.914-5.952 3.658-1.224 1.984-.183 4.981 3.124 8.935a52.569 52.569 0 004.981 5.093.814.814 0 00.549.211.847.847 0 00.844-.844.9.9 0 00-.141-.464c-.169-.3-.985-1.829-1.745-3.56-1.477-3.363-1.491-4.6-1.421-4.967.141-.788 1.562-.915 2.406-.915a12.2 12.2 0 011.365.084l.281 5.079a.833.833 0 00.507.732.853.853 0 00.886-.141l9.455-8.161a.836.836 0 00.3-.605.87.87 0 00-.239-.633L11.696.242a.864.864 0 00-.916-.183zm1.168 2.856l7.865 8.02-7.485 6.458-.225-4.052a.838.838 0 00-.675-.774 13.107 13.107 0 00-2.336-.211c-3.025 0-3.883 1.252-4.066 2.308-.2 1.083.225 2.842 1.28 5.333a53.984 53.984 0 01-1.407-1.59c-2.7-3.236-3.757-5.7-2.969-6.951 2.054-3.335 8.358-3.433 9.075-3.433h.084a.863.863 0 00.605-.239.818.818 0 00.253-.605V2.915z" stroke="none"/>
	</symbol>
	<symbol id="hairdresser-cutting-scissors" viewBox="0 0 17.7 21.46">
		<path d="M14.098 21.447a3.6 3.6 0 000-7.2 3.7 3.7 0 00-1.8.478l-2.279-2.209.324-.267a.779.779 0 00.281-.422L13.775 1.2a.863.863 0 00-.563-1.056.863.863 0 00-1.055.563L9.09 11.077l-.281.225-.183-.183-2.9-10.5a.847.847 0 10-1.632.45l2.955 10.764a.808.808 0 00.225.38l.2.2-2.533 2.027c-.014.014-.042.028-.056.056a3.51 3.51 0 00-1.28-.239 3.6 3.6 0 103.6 3.6 3.572 3.572 0 00-.886-2.35l2.378-1.9 2.378 2.308a3.581 3.581 0 003.025 5.53zm-10.5-1.688a1.914 1.914 0 111.914-1.914 1.916 1.916 0 01-1.91 1.913zm12.41-1.914a1.914 1.914 0 11-1.914-1.914 1.916 1.916 0 011.918 1.914z" stroke="none"/>
	</symbol>
	<symbol id="help-button" viewBox="0 0 23.526 23.525">
		<path d="M11.481 16.687a.847.847 0 00-.844.844v.563a.844.844 0 001.688 0v-.563a.847.847 0 00-.844-.844z"/><path d="M11.763 23.525A11.763 11.763 0 100 11.763a11.776 11.776 0 0011.763 11.762zm0-21.837A10.074 10.074 0 111.688 11.763 10.082 10.082 0 0111.763 1.688z" stroke="none"/><path d="M8.104 9.652a.823.823 0 00.844-.816A3.44 3.44 0 019.3 7.499a2.3 2.3 0 012.265-1.266 2.659 2.659 0 012.209.83 1.991 1.991 0 01.281 1.745 5.615 5.615 0 01-1.618 2.251c-.844.872-1.731 1.759-1.731 2.955a.844.844 0 101.688 0c0-.507.605-1.126 1.252-1.773a6.917 6.917 0 002.045-3.013 3.618 3.618 0 00-.577-3.194 4.191 4.191 0 00-3.532-1.491 3.905 3.905 0 00-3.771 2.195 5.184 5.184 0 00-.535 2.1.82.82 0 00.828.814z" stroke="none"/>
	</symbol>
	<symbol id="information-square" viewBox="0 0 21.95 21.95">
		<path d="M10.975 7.739a.847.847 0 00.844-.844v-.844a.844.844 0 10-1.688 0v.844a.847.847 0 00.844.844z" stroke="none"/><path d="M9.286 11.115h.844v4.784a.844.844 0 101.688 0v-5.628a.847.847 0 00-.844-.844H9.286a.844.844 0 000 1.688z" stroke="none"/><path d="M21.95.844A.847.847 0 0021.105 0H.844A.847.847 0 000 .844v20.261a.847.847 0 00.844.844h20.261a.847.847 0 00.844-.844zm-1.689 19.417H1.688V1.688h18.573z" stroke="none"/>
	</symbol>
	<symbol id="left-arrow-sign" viewBox="0 0 21.091 15.621">
		<path d="M.253 7.207l-.028.028-.024.029c-.014.014-.014.028-.028.042l-.028.028c-.014.014-.014.028-.028.042s-.016.014-.016.028-.014.028-.028.056-.014.014-.014.028-.014.042-.028.056v.014a.127.127 0 00-.014.07v.014c0 .028-.014.042-.014.07v.2a.127.127 0 00.014.07v.014c0 .028.014.042.014.07v.014c.014.014.014.042.028.056s.014.014.014.028.014.042.028.056.014.014.014.028.014.028.028.042l.028.028c.014.014.014.028.028.042l.028.028.028.028.014.014 7.823 6.979a.847.847 0 101.126-1.266L3.039 8.671h17.208a.844.844 0 100-1.688H3.039l6.163-5.5A.847.847 0 108.076.217L.267 7.193a.014.014 0 01-.014.014z" stroke="none"/>
	</symbol>
	<symbol id="left-chevron" viewBox="0 0 13.056 18.646">
		<path d="M12.888.341a.836.836 0 00-1.182-.169L.338 8.642a.844.844 0 000 1.351l11.369 8.484a.844.844 0 101.01-1.35L2.251 9.318l10.466-7.809a.832.832 0 00.171-1.168z" stroke="none"/>
	</symbol>
	<symbol id="library-bookmark" viewBox="0 0 15.196 23.316">
		<path d="M14.352 0H.843a.847.847 0 00-.844.844V22.47a.841.841 0 00.535.788.831.831 0 00.929-.225l6.3-6.909 5.952 6.894a.869.869 0 00.633.3.735.735 0 00.3-.056.853.853 0 00.549-.788V.844A.847.847 0 0014.352 0zm-.844 20.2l-5.079-5.9a.823.823 0 00-.633-.3.832.832 0 00-.633.281L1.688 20.3V1.688h11.819z" stroke="none"/>
	</symbol>
	<symbol id="livesaver-support" viewBox="0 0 24.196 24.196">
		<path d="M12.1 0a12.1 12.1 0 1012.1 12.1A12.109 12.109 0 0012.1 0zm8.275 5.66l-3.516 3.514a5.583 5.583 0 00-1.677-1.73l3.5-3.5a10.232 10.232 0 011.691 1.716zM12.1 16.081a3.983 3.983 0 113.981-3.981 3.984 3.984 0 01-3.981 3.981zm5.229-13.063l-3.7 3.7A5.69 5.69 0 0012.1 6.5a5.554 5.554 0 00-1.636.241L6.773 3.058a10.465 10.465 0 0110.556-.04zM5.432 4l3.5 3.5a5.486 5.486 0 00-1.65 1.77L3.769 5.74A10.245 10.245 0 015.432 4zM2.87 7.122l3.769 3.769A5.943 5.943 0 006.5 12.1a5.69 5.69 0 00.215 1.529l-3.7 3.7A10.434 10.434 0 012.87 7.122zm1.073 11.561l3.487-3.5a5.889 5.889 0 001.73 1.677l-3.5 3.514a10.232 10.232 0 01-1.717-1.691zm3.085 2.6l3.729-3.729c.013-.013.013-.027.027-.027a5.453 5.453 0 001.328.161 5.943 5.943 0 001.207-.134l3.769 3.769a10.516 10.516 0 01-10.059-.04zm11.427-.858L14.928 16.9a5.774 5.774 0 001.77-1.65l3.5 3.5a9.823 9.823 0 01-1.743 1.677zm2.682-3l-3.688-3.688a5.489 5.489 0 00.241-1.636 5.267 5.267 0 00-.161-1.314l3.755-3.755A10.448 10.448 0 0122.6 12.1a10.563 10.563 0 01-1.462 5.323z" stroke="none"/>
	</symbol>
	<symbol id="loudspeaker-announce" viewBox="0 0 19.233 17.308">
		<path d="M.027 4.996L0 11.702a.8.8 0 00.255.59.838.838 0 00.6.215c.013 0 .7-.054 1.757-.067a6.545 6.545 0 00.577 2.294A4.3 4.3 0 007.2 17.308h.134a4.233 4.233 0 003.018-1.113 5.083 5.083 0 001.395-2.776 20.584 20.584 0 016.143 3.38.785.785 0 00.536.2.863.863 0 00.322-.067.806.806 0 00.483-.738V.811a.815.815 0 00-1.355-.6c-.027.027-3.246 2.9-5.687 3.648a20.8 20.8 0 01-5.821.657 49.424 49.424 0 01-5.432-.322.825.825 0 00-.63.188.857.857 0 00-.279.614zm7.31 10.7h-.094a2.7 2.7 0 01-2.575-1.609 4.629 4.629 0 01-.443-1.663c.322 0 .671.013 1.006.027a.81.81 0 00.322.067.64.64 0 00.268-.054 27.448 27.448 0 014.359.51 2.8 2.8 0 01-2.843 2.725zm5.338-10.3a17.458 17.458 0 004.949-2.884v12.06a23.657 23.657 0 00-5.338-2.682 22.076 22.076 0 00-5.9-.993l.027-4.761a22.331 22.331 0 006.262-.738zm-11.038.5a51.92 51.92 0 003.165.2l-.027 4.721c-.362-.013-.711-.013-1.033-.013-.858 0-1.6.027-2.133.04z" stroke="none"/>
	</symbol>
	<symbol id="lovers-heart" viewBox="0 0 20.942 19.341">
		<path d="M10.085 19.206a.857.857 0 00.443.134.778.778 0 00.443-.134c.362-.241 8.866-5.848 9.831-11.548a6.832 6.832 0 00-1.261-5.776 5.226 5.226 0 00-3.93-1.878 3.811 3.811 0 00-1.368.241 9.983 9.983 0 00-4.171 3.037A8.52 8.52 0 006.545.532 4.662 4.662 0 005.029.291a4.807 4.807 0 00-3.568 1.56C.669 2.723-.229 4.382.053 7.282c.563 5.7 9.648 11.67 10.032 11.924zM2.655 2.924a3.181 3.181 0 012.374-1.033 3.019 3.019 0 01.993.161c1.864.63 3.353 3 3.38 3.018a.78.78 0 00.7.376.812.812 0 00.684-.4 8.5 8.5 0 014.037-3.313 2.445 2.445 0 01.791-.134 3.628 3.628 0 012.7 1.314 5.328 5.328 0 01.9 4.48c-.349 2.039-2.012 4.48-4.815 7.068a38.307 38.307 0 01-3.863 3.1 40.251 40.251 0 01-4.091-3.259C3.521 11.62 1.871 9.138 1.67 7.126a5.363 5.363 0 01.985-4.202z" stroke="none"/>
	</symbol>
	<symbol id="magnifying-glass-browser" viewBox="0 0 22.187 22.868">
		<path d="M15.41 14.928a8.779 8.779 0 10-1.194 1.086l6.612 6.612a.794.794 0 00.563.241.772.772 0 00.563-.241.818.818 0 000-1.14zM1.61 8.892a7.283 7.283 0 117.283 7.283A7.29 7.29 0 011.61 8.892z" stroke="none"/>
	</symbol>

	

	<symbol id="magnifying-search" viewBox="0 0 22.187 22.868">
		<g id="Group_591" transform="translate(1.5 1.5)">
			<g id="Group_59" data-name="Group 59" transform="translate(0)">
			<path id="Path_111" data-name="Path 111" d="M19.08,11.517a6.773,6.773,0,1,0-.921.838l5.1,5.1a.613.613,0,0,0,.435.186.6.6,0,0,0,.435-.186.631.631,0,0,0,0-.88ZM8.432,6.861a5.619,5.619,0,1,1,5.619,5.619A5.624,5.624,0,0,1,8.432,6.861Z" transform="translate(-7.19 0)" fill="silver" stroke="silver" stroke-width="3"/>
			</g>
		</g>
	</symbol>



	<symbol id="magnifying-glass-thick" viewBox="-3 -3 28.187 28.868">
		<path d="M15.41 14.928a8.779 8.779 0 10-1.194 1.086l6.612 6.612a.794.794 0 00.563.241.772.772 0 00.563-.241.818.818 0 000-1.14zM1.61 8.892a7.283 7.283 0 117.283 7.283A7.29 7.29 0 011.61 8.892z" stroke-width="3px" />
	</symbol>
	<symbol id="magnifying-glass-zoom-in" viewBox="0 0 22.187 22.868">
		<path d="M8.892 17.785a8.848 8.848 0 005.325-1.77l6.612 6.612a.794.794 0 00.563.241.772.772 0 00.563-.241.818.818 0 000-1.14l-6.545-6.559a8.884 8.884 0 10-6.518 2.857zm0-16.175A7.283 7.283 0 111.61 8.892a7.29 7.29 0 017.282-7.283z" stroke="none"/><path d="M5.62 9.671h2.548v2.548a.804.804 0 101.609 0V9.671h2.548a.804.804 0 000-1.609H9.778V5.514a.804.804 0 00-1.609 0v2.544H5.621a.804.804 0 000 1.609z" stroke="none"/>
	</symbol>
	<symbol id="magnifying-glass-zoom-out" viewBox="0 0 22.187 22.868">
		<path d="M8.892 17.785a8.848 8.848 0 005.325-1.77l6.612 6.612a.794.794 0 00.563.241.772.772 0 00.563-.241.818.818 0 000-1.14l-6.545-6.559a8.884 8.884 0 10-6.518 2.857zm0-16.175A7.283 7.283 0 111.61 8.892a7.29 7.29 0 017.282-7.283z" stroke="none"/><path d="M5.486 9.804h6.706a.804.804 0 100-1.609H5.486a.804.804 0 100 1.609z" stroke="none"/>
	</symbol>
	<symbol id="map-location-flag" viewBox="0 0 19.488 20.789">
		<path d="M4.507 0h-3.7a.752.752 0 00-.8.738v19.18a.867.867 0 00.8.872h3.7a.915.915 0 00.858-.872v-6.76c1.073-.215 4.372-.7 6.116 1.234a3.917 3.917 0 003.018 1.341 8.163 8.163 0 004.694-1.878.829.829 0 00.3-.63l-.161-8.959a.8.8 0 00-.429-.7.782.782 0 00-.818.054c-.657.443-2.682 1.529-4.1 1.18a1.958 1.958 0 01-1.3-1.086c-.885-1.677-2.629-2.6-5.07-2.669a11.671 11.671 0 00-2.24.148V.738A.8.8 0 004.507 0zm-.749 19.18H1.609V1.609h2.149zm7.508-14.714a3.531 3.531 0 002.32 1.891 6.592 6.592 0 004.158-.711l.121 7.189c-.9.63-3.568 2.28-5.191.483-2.146-2.387-5.834-2.079-7.31-1.8V2.83c1.342-.255 4.722-.604 5.902 1.636z" stroke="none"/>
	</symbol>
	<symbol id="map-point-pointer" viewBox="0 0 16.256 22.868">
		<path d="M8.124 5.419a3.594 3.594 0 103.594 3.594 3.595 3.595 0 00-3.594-3.594zm0 5.579a1.985 1.985 0 111.985-1.985 1.989 1.989 0 01-1.985 1.985z" stroke="none"/><path d="M14.096 2.682A8.052 8.052 0 007.886 0C2.709 0 0 4.211 0 8.369c0 5.445 7.444 13.855 7.766 14.217a.778.778 0 00.59.282h.013a.836.836 0 00.59-.268 40.019 40.019 0 003.621-4.654c2.442-3.646 3.678-6.881 3.678-9.59a8.661 8.661 0 00-2.162-5.674zM8.383 20.8c-1.744-2.092-6.76-8.436-6.76-12.447 0-3.246 1.972-6.746 6.277-6.746a6.6 6.6 0 016.746 6.746c0 4.724-4.6 10.505-6.263 12.447z" stroke="none"/>
	</symbol>
	<symbol id="menu-grid" viewBox="0 0 19.314 19.046">
		<path d="M8.047.805a.807.807 0 00-.8-.8H.8a.807.807 0 00-.8.8v6.438a.807.807 0 00.8.8h6.443a.807.807 0 00.8-.8zm-6.438.8h4.829v4.833H1.609z" stroke="none"/><path d="M19.313.805a.807.807 0 00-.8-.8h-6.447a.807.807 0 00-.8.8v6.438a.807.807 0 00.8.8h6.438a.807.807 0 00.8-.8zm-6.438.8h4.828v4.833h-4.828z" stroke="none"/><path d="M8.047 11.803a.807.807 0 00-.8-.8H.8a.807.807 0 00-.8.8v6.438a.807.807 0 00.8.8h6.443a.807.807 0 00.8-.8zm-6.438.8h4.829v4.828H1.609z" stroke="none"/><path d="M19.313 11.803a.807.807 0 00-.8-.8h-6.447a.807.807 0 00-.8.8v6.438a.807.807 0 00.8.8h6.438a.807.807 0 00.8-.8zm-6.438.8h4.828v4.828h-4.828z" stroke="none"/>
	</symbol>
	<symbol id="menu-options" viewBox="0 0 18.777 13.681">
		<path d="M.8 1.609h17.173a.804.804 0 100-1.609H.8a.804.804 0 000 1.609z" stroke="none"/><path d="M.8 7.645h17.173a.804.804 0 000-1.609H.8a.804.804 0 000 1.609z" stroke="none"/><path d="M.8 13.68h17.173a.804.804 0 100-1.609H.8a.804.804 0 100 1.609z" stroke="none"/>
	</symbol>
	<symbol id="messenger-user-avatar" viewBox="0 0 14.631 19.04">
		<path d="M0 18.269a.774.774 0 00.771.771h13.088a.774.774 0 00.771-.771c0-4.268-1.928-7.932-4.641-9.4a4.84 4.84 0 10-5.335 0C1.928 10.337 0 14 0 18.269zM7.315 1.543a3.291 3.291 0 11-3.291 3.291 3.3 3.3 0 013.291-3.291zm0 8.164c3.008 0 5.477 3.433 5.747 7.791H1.568c.27-4.359 2.74-7.791 5.747-7.791z" stroke="none" />
	</symbol>
	<symbol id="minimize-arrows" viewBox="0 0 18.616 18.616">
		<path d="M.771 6.994H6.4a.782.782 0 00.72-.836V.771a.771.771 0 00-1.543 0V4.41L1.646.45a.768.768 0 00-1.08 0 .816.816 0 000 1.119l3.857 3.882H.771a.771.771 0 100 1.543z" stroke="none"/><path d="M.771 13.036h3.574l-3.9 3.9a.784.784 0 000 1.093.762.762 0 00.54.231.8.8 0 00.54-.219l3.921-3.921v3.728a.771.771 0 101.543 0v-5.554a.774.774 0 00-.759-.784H.771a.774.774 0 00-.771.771.763.763 0 00.771.755z" stroke="none"/><path d="M18.616 12.65a.774.774 0 00-.771-.771H12.33a.79.79 0 00-.836.72v5.233a.771.771 0 101.543 0v-3.51l3.883 3.844a.8.8 0 00.566.231.768.768 0 00.553-.231.741.741 0 000-1.067l-3.7-3.677h3.51a.774.774 0 00.767-.772z" stroke="none"/><path d="M17.845 5.708h-3.728L18.025 1.8a.784.784 0 000-1.093.816.816 0 00-1.119 0l-3.87 3.844V.771a.771.771 0 10-1.543 0V6.48a.831.831 0 00.836.771h5.515a.771.771 0 100-1.543z" stroke="none"/>
	</symbol>
	<symbol id="minus-maths-button" viewBox="0 0 22.653 22.653">
		<path d="M17.626 10.555h-12.6a.771.771 0 100 1.543h12.6a.771.771 0 100-1.543z" stroke="none"/><path d="M11.327 0a11.327 11.327 0 1011.326 11.327A11.336 11.336 0 0011.327 0zm0 21.11a9.784 9.784 0 119.784-9.784 9.789 9.789 0 01-9.784 9.784z" stroke="none"/>
	</symbol>
	<symbol id="move-arrows" viewBox="0 0 21.753 21.753">
		<path d="M3.42 14.618a.761.761 0 00.54.231.74.74 0 00.54-.231.784.784 0 000-1.093l-1.864-1.877h7.47v7.47l-1.98-1.98a.773.773 0 10-1.093 1.092l3.291 3.291a.794.794 0 00.54.231.74.74 0 00.54-.231l3.24-3.24a.773.773 0 10-1.093-1.093l-1.9 1.928v-7.47h7.47L17.176 13.6a.784.784 0 000 1.093.761.761 0 00.54.231.74.74 0 00.54-.231l3.266-3.266a.794.794 0 00.231-.54.72.72 0 00-.231-.54l-3.1-3.1a.773.773 0 00-1.093 1.093l1.787 1.787h-7.47v-7.5l2.07 2.07a.761.761 0 00.54.231.74.74 0 00.54-.231.784.784 0 000-1.093L11.417.231a.794.794 0 00-.54-.231.72.72 0 00-.54.231L7.071 3.5a.773.773 0 001.093 1.09l1.941-1.954v7.47H2.636l2.018-2.019a.773.773 0 00-1.093-1.093l-3.33 3.33a.794.794 0 00-.231.54.74.74 0 00.231.54z" stroke="none"/>
	</symbol>
	<symbol id="multimedia-menu" viewBox="0 0 17.228 13.114">
		<path d="M4.757.767a.774.774 0 00.771.771h10.928a.771.771 0 100-1.543H5.524a.774.774 0 00-.767.772z" stroke="none"/><path d="M5.524 7.328h10.928a.771.771 0 000-1.543H5.524a.771.771 0 000 1.543z" stroke="none"/><path d="M5.524 13.114h10.928a.771.771 0 000-1.543H5.524a.771.771 0 100 1.543z" stroke="none"/><path d="M.771 1.543h1.286a.771.771 0 100-1.543H.771a.771.771 0 100 1.543z" stroke="none"/><path d="M.771 7.328h1.286a.771.771 0 000-1.543H.771a.771.771 0 000 1.543z" stroke="none"/><path d="M.771 13.114h1.286a.771.771 0 000-1.543H.771a.771.771 0 000 1.543z" stroke="none"/>
	</symbol>
	<symbol id="multimedia-music-player-play-button" viewBox="0 0 22.653 22.653">
		<path d="M17.382 10.658L8.164 5.335a.754.754 0 00-.771 0 .772.772 0 00-.386.669v10.632a.771.771 0 00.386.669.774.774 0 00.771 0l9.205-5.321a.768.768 0 00.013-1.324zM8.55 15.312V7.341l6.891 3.985z" stroke="none"/><path d="M11.327 0a11.327 11.327 0 1011.326 11.327A11.336 11.336 0 0011.327 0zm0 21.11a9.784 9.784 0 119.784-9.784 9.789 9.789 0 01-9.784 9.784z" stroke="none"/>
	</symbol>
	<symbol id="office-monthly-calendar" viewBox="0 0 22.113 22.37">
		<path d="M21.342 2.057h-2.314a.771.771 0 100 1.543h1.539v17.224H1.543V3.6H3.6a.771.771 0 100-1.543H.767a.774.774 0 00-.771.771v18.77a.774.774 0 00.771.771h20.57a.774.774 0 00.771-.771V2.824a.774.774 0 00-.766-.767z" stroke="none"/><path d="M12.085 2.057H9.899a.771.771 0 000 1.543h2.186a.771.771 0 100-1.543z" stroke="none"/><path d="M6.424 15.942h-1.8a.774.774 0 00-.771.771v1.286a.774.774 0 00.771.771h1.8a.774.774 0 00.771-.771v-1.29a.774.774 0 00-.771-.767z" stroke="none"/><path d="M11.957 15.942h-1.933a.774.774 0 00-.771.771v1.286a.774.774 0 00.771.771h1.928a.774.774 0 00.771-.771v-1.29a.774.774 0 00-.766-.767z" stroke="none"/><path d="M7.2 12.466a.774.774 0 00-.771-.771H4.624a.774.774 0 00-.771.771v1.286a.774.774 0 00.771.771h1.8a.774.774 0 00.771-.771z" stroke="none"/><path d="M12.724 12.466a.774.774 0 00-.771-.771h-1.929a.774.774 0 00-.771.771v1.286a.774.774 0 00.771.771h1.928a.774.774 0 00.771-.771z" stroke="none"/><path d="M17.356 11.699h-1.8a.774.774 0 00-.771.771v1.286a.774.774 0 00.771.771h1.8a.774.774 0 00.771-.771v-1.29a.774.774 0 00-.771-.767z" stroke="none"/><path d="M3.857 8.099v1.286a.774.774 0 00.771.771h1.8a.774.774 0 00.771-.771V8.099a.774.774 0 00-.771-.771H4.624a.774.774 0 00-.767.771z" stroke="none"/><path d="M12.724 8.099a.774.774 0 00-.771-.771h-1.929a.774.774 0 00-.771.771v1.286a.774.774 0 00.771.771h1.928a.774.774 0 00.771-.771z" stroke="none"/><path d="M18.128 8.099a.774.774 0 00-.771-.771h-1.8a.774.774 0 00-.771.771v1.286a.774.774 0 00.771.771h1.8a.774.774 0 00.771-.771z" stroke="none"/><path d="M6.943 5.143a.774.774 0 00.771-.771V.771A.774.774 0 006.943 0h-.776a.774.774 0 00-.771.771v3.6a.774.774 0 00.771.771z" stroke="none"/><path d="M15.814 0h-.776a.774.774 0 00-.771.771v3.6a.774.774 0 00.771.771h.771a.774.774 0 00.771-.771v-3.6A.774.774 0 0015.814 0z" stroke="none"/>
	</symbol>
	<symbol id="online-shopping-cart" viewBox="0 0 20.851 18.925">
		<path d="M.771 1.543h2.212l3.15 11.391a.771.771 0 00.746.566h9.681a.773.773 0 00.707-.463l3.523-8.1a.78.78 0 00-.064-.733.766.766 0 00-.643-.347H9.385a.771.771 0 100 1.543H18.9l-2.854 6.557H7.457L4.307.569a.771.771 0 00-.746-.566H.771a.771.771 0 100 1.543z" stroke="none"/><path d="M6.145 18.925a1.748 1.748 0 10-1.748-1.749 1.75 1.75 0 001.748 1.749z" stroke="none"/><path d="M17.074 18.924h.129a1.808 1.808 0 10-.129 0z" stroke="none"/>
	</symbol>
	<symbol id="open-computer-laptop-screen" viewBox="0 0 21.633 18.77">
		<path d="M21.365 18.089a1.591 1.591 0 00.167-1.44l-1.671-4.371a1.7 1.7 0 00-.411-.579 2.173 2.173 0 00.231-1V2.16A2.129 2.129 0 0017.573 0H4.047a2.129 2.129 0 00-2.108 2.16v8.537a2.173 2.173 0 00.231 1 1.509 1.509 0 00-.4.579L.1 16.654a1.591 1.591 0 00.167 1.44 1.528 1.528 0 001.273.681h18.552a1.563 1.563 0 001.273-.686zM3.482 2.16a.583.583 0 01.566-.617h13.524a.583.583 0 01.566.617v8.537a.661.661 0 01-.424.617H3.906a.649.649 0 01-.424-.617V2.16zM1.527 17.202L3.2 12.831h.579a1.921 1.921 0 00.27.026h13.523c.077 0 .167-.013.244-.013h.6l1.671 4.371z" stroke="none"/>
	</symbol>
	<symbol id="open-padlock" viewBox="0 0 17.597 22.849">
		<path d="M3.257 22.849H14.34a3.223 3.223 0 003.257-3.217v-7.2a3.186 3.186 0 00-2.363-3.108V5.87A5.823 5.823 0 009.455 0H8.142a5.868 5.868 0 00-5.844 5.857.79.79 0 00.788.788.8.8 0 00.788-.8 4.276 4.276 0 014.268-4.268h1.313a4.243 4.243 0 014.2 4.294v3.321h-10.4a3.256 3.256 0 00-3.257 3.257v7.2a3.22 3.22 0 003.259 3.2zm12.764-3.257a1.676 1.676 0 01-1.681 1.681H3.257a1.676 1.676 0 01-1.681-1.681v-7.143a1.676 1.676 0 011.681-1.681H14.34a1.676 1.676 0 011.681 1.681v7.144z" stroke="none" /><path d="M8.536 19.304a.79.79 0 00.788-.788v-2.5a.788.788 0 00-1.576 0v2.5a.79.79 0 00.788.788z" stroke="none" />
	</symbol>
	<symbol id="options-gear" viewBox="0 0 20.315 20.223">
		<path d="M1.445 12.291l.945.433a.832.832 0 01.433 1.037l-.368.972a2.332 2.332 0 00.276 2.193A2.371 2.371 0 004.7 17.964a2.4 2.4 0 00.854-.158l.972-.368a.707.707 0 01.289-.053.817.817 0 01.749.486l.436.947a2.393 2.393 0 004.36 0l.433-.945a.825.825 0 01.749-.486.748.748 0 01.289.053l.972.381a2.411 2.411 0 00.854.171 2.454 2.454 0 001.97-1.051 2.4 2.4 0 00.276-2.206l-.368-.972a.832.832 0 01.433-1.037l.945-.433a2.393 2.393 0 000-4.36l-.945-.433a.832.832 0 01-.433-1.037l.365-.974a2.332 2.332 0 00-.276-2.193 2.371 2.371 0 00-1.97-1.037 2.4 2.4 0 00-.854.158l-.972.368a.707.707 0 01-.289.053.817.817 0 01-.749-.486l-.433-.943A2.375 2.375 0 0010.177 0a2.443 2.443 0 00-2.219 1.418l-.433.945a.825.825 0 01-.749.486.748.748 0 01-.289-.053l-.972-.367a2.4 2.4 0 00-.854-.158 2.441 2.441 0 00-1.969 1.038 2.378 2.378 0 00-.276 2.193l.368.972a.832.832 0 01-.433 1.035l-.945.433a2.37 2.37 0 00.039 4.347zm.643-2.928l.945-.433a2.4 2.4 0 001.248-3.021l-.368-.972a.784.784 0 01.092-.749.8.8 0 01.972-.3l.972.368a2.326 2.326 0 00.84.158 2.411 2.411 0 002.18-1.405l.431-.947a.806.806 0 01.749-.486.817.817 0 01.749.486l.435.947a2.411 2.411 0 002.18 1.4 2.326 2.326 0 00.84-.158l.972-.368a.841.841 0 01.972.3.784.784 0 01.092.749l-.368.972a2.41 2.41 0 001.248 3.02l.945.433a.806.806 0 01.486.749.817.817 0 01-.486.749l-.945.433a2.4 2.4 0 00-1.248 3.02l.368.972a.784.784 0 01-.092.749.8.8 0 01-.972.3l-.972-.368a2.326 2.326 0 00-.84-.158 2.411 2.411 0 00-2.18 1.405l-.433.945a.806.806 0 01-.749.486.817.817 0 01-.749-.486l-.433-.945a2.411 2.411 0 00-2.18-1.399 2.326 2.326 0 00-.84.158l-.972.368a.841.841 0 01-.972-.3.784.784 0 01-.092-.749l.368-.972a2.41 2.41 0 00-1.248-3.02l-.945-.433a.806.806 0 01-.488-.752.817.817 0 01.488-.746z"/><path d="M10.137 13.526a3.414 3.414 0 10-3.414-3.414 3.424 3.424 0 003.414 3.414zm0-5.253a1.838 1.838 0 11-1.838 1.838 1.844 1.844 0 011.838-1.838z" stroke="none"/>
	</symbol>
	<symbol id="photo-camera" viewBox="0 0 23.9 20.761">
		<path d="M20.7 3.966l-2.508-.013-2.4-3.585A.8.8 0 0015.135 0H8.654a.791.791 0 00-.643.355l-2.482 3.6-2.329.011a3.217 3.217 0 00-3.2 3.2v10.365a3.24 3.24 0 003.2 3.23h17.5a3.24 3.24 0 003.2-3.23V7.17a3.217 3.217 0 00-3.2-3.204zm1.624 13.565a1.659 1.659 0 01-1.624 1.654H3.2a1.659 1.659 0 01-1.624-1.654V7.17A1.637 1.637 0 013.2 5.541h2.749a.791.791 0 00.643-.355l2.482-3.6h5.634L17.1 5.161a.811.811 0 00.643.355l2.942.026a1.637 1.637 0 011.628 1.628v10.361h.013z" stroke="none"/><path d="M12.016 5.857a5.581 5.581 0 105.586 5.581 5.585 5.585 0 00-5.586-5.581zm0 9.586a4.005 4.005 0 114.005-4.005 4.013 4.013 0 01-4.005 4.005z" stroke="none"/><circle cx=".302" cy=".302" transform="translate(19.185 7.866)" r=".302" stroke="none"/><path d="M19.488 7.078a1.09 1.09 0 101.09 1.09 1.087 1.087 0 00-1.09-1.09zm0 1.576a.485.485 0 01-.486-.486.486.486 0 11.972 0 .485.485 0 01-.486.486z" stroke="none"/>
	</symbol>
	<symbol id="photography-frame" viewBox="0 0 21.536 18.122">
		<path d="M21.536.788A.79.79 0 0020.748 0H.788A.79.79 0 000 .788v16.546a.79.79 0 00.788.788h19.96a.79.79 0 00.788-.788zm-1.576.788v10.085l-4.622-3.244a.774.774 0 00-.985.079l-2.4 2.311L6.96 5.988a.783.783 0 00-1.169.079l-4.2 5.4V1.576zM1.576 16.546v-2.521l4.911-6.29 4.913 4.74a.794.794 0 001.09 0l2.469-2.39 5 3.506v2.955z" stroke="none"/><path d="M12.698 7.564a1.523 1.523 0 10-1.523-1.523 1.524 1.524 0 001.523 1.523z" stroke="none"/>
	</symbol>
	<symbol id="pirate-treasure-map" viewBox="0 0 19.698 22.168">
		<path d="M18.476 1.34l-5.633 3.625L7.196.185a.809.809 0 00-.959-.053l-5.9 4.031a.8.8 0 00-.341.657v14.642a.777.777 0 00.42.7.791.791 0 00.814-.053l4.977-3.4 6.027 5.266a.76.76 0 00.512.2.77.77 0 00.407-.118l6.159-3.69a.782.782 0 00.381-.67V2a.806.806 0 00-.407-.7.82.82 0 00-.81.04zm-.354 15.916l-5.279 3.165-5.752-5.029v-2.968a.788.788 0 10-1.576 0v2.863l-3.94 2.692V5.241l5.057-3.454 5.32 4.478v9.967a.788.788 0 101.576 0V6.409l4.6-2.968z" stroke="none"/><path d="M9.048 5.174a.8.8 0 00-1.116 0L6.593 6.513l-1.34-1.339A.79.79 0 004.137 6.29l1.339 1.339-1.339 1.353a.8.8 0 000 1.116.778.778 0 00.552.236.756.756 0 00.552-.236l1.353-1.353 1.339 1.339a.778.778 0 00.552.236.756.756 0 00.552-.236.8.8 0 000-1.116L7.711 7.629 9.05 6.29a.777.777 0 00-.002-1.116z" stroke="none"/>
	</symbol>
	<symbol id="plus-addition-sign-circle" viewBox="0 0 23.138 23.138">
		<path d="M4.867 12.357h5.909v5.91a.788.788 0 101.576 0v-5.91h5.915a.788.788 0 100-1.576h-5.91V4.867a.788.788 0 10-1.576 0v5.909H4.867a.788.788 0 000 1.576z" stroke="none"/><path d="M11.569 23.138A11.569 11.569 0 100 11.569a11.579 11.579 0 0011.569 11.569zm0-21.562a9.993 9.993 0 11-9.993 9.993 10 10 0 019.993-9.993z" stroke="none"/>
	</symbol>
	<symbol id="power-on-button" viewBox="0 0 17.255 19.448">
		<path d="M4.842 4.871a.789.789 0 00-.85-1.329 8.626 8.626 0 109.494.144.785.785 0 10-.88 1.3 7.052 7.052 0 11-11.018 5.83 6.963 6.963 0 013.254-5.945z" stroke="none"/><path d="M9.416 11.556V.788a.788.788 0 10-1.576 0v10.768a.788.788 0 101.576 0z" stroke="none"/>
	</symbol>
	<symbol id="prohibition-road-sign" viewBox="0 0 23.138 23.138">
		<path d="M19.816 3.454c-.013-.013-.026-.026-.039-.026a9.356 9.356 0 10.079.066zm-18.24 8.115a9.987 9.987 0 0116.546-7.538L4.031 18.122a9.978 9.978 0 01-2.455-6.553zm9.993 9.993a9.981 9.981 0 01-6.421-2.337L19.225 5.148a9.992 9.992 0 01-7.656 16.415z" stroke="none"/>
	</symbol>
	<symbol id="reading-open-book" viewBox="0 0 21.517 19.95">
		<path d="M19.849 1.684a6.179 6.179 0 00-4.99-1.615 6.458 6.458 0 00-4.1 2.232 6.533 6.533 0 00-4.1-2.232 4.534 4.534 0 00-.84-.066C3.902.003 2.063 1.054.33 3.128l-.013.013a.739.739 0 00-.276.381.752.752 0 00-.039.368v15.259a.776.776 0 00.473.722.788.788 0 00.854-.158c.026-.039 3.086-2.928 5.607-2.928 2.246 0 3.033 2.482 3.06 2.587 0 .013.013.013.013.026a.1.1 0 00.026.053l.039.079c.013.013.013.026.026.039s.039.053.053.079.013.026.026.026l.066.066.026.026a.4.4 0 00.092.066.013.013 0 01.013.013.791.791 0 00.381.105h.105a519.6 519.6 0 00.079-.026c.026-.013.066-.013.092-.026a.046.046 0 00.026-.013.329.329 0 00.092-.053c.013 0 .013-.013.026-.013a.347.347 0 00.079-.066l.026-.026.066-.066c.013-.013.013-.026.026-.039s.039-.053.053-.079.013-.039.026-.053a.187.187 0 00.026-.079c0-.013.013-.013.013-.026.026-.105.814-2.587 3.06-2.587 2.521 0 5.594 2.889 5.62 2.928a.766.766 0 00.538.223.9.9 0 00.315-.066.776.776 0 00.473-.722V3.968a.75.75 0 00.013-.171c0-.263-.066-.407-.565-.985a7.12 7.12 0 00-1.097-1.128zM6.941 15.209c-1.983 0-4.071 1.274-5.371 2.259V4.1c1.6-1.9 3.23-2.745 4.832-2.482a4.621 4.621 0 013.572 2.324v12.489a4.3 4.3 0 00-3.033-1.222zm13.014 2.246c-1.313-.985-3.388-2.259-5.371-2.259a4.325 4.325 0 00-3.033 1.221V3.942a4.65 4.65 0 013.572-2.324 4.487 4.487 0 01.591-.053c2.075 0 3.756 1.865 4.242 2.469v13.421z" stroke="none"/>
	</symbol>
	<symbol id="refresh-page-arrow" viewBox="0 0 16.736 16.604">
		<path d="M8.463 15.029a6.734 6.734 0 01-6.408-4.754.79.79 0 00-1.51.46A8.274 8.274 0 108.463.058 8.358 8.358 0 001.9 3.289l-.328-2.6a.788.788 0 00-1.563.2l.614 4.803a.79.79 0 00.775.683h.092l4.754-.538a.786.786 0 00-.171-1.563l-3.191.355a6.7 6.7 0 115.581 10.4z" stroke="none"/>
	</symbol>
	<symbol id="retro-badge" viewBox="0 0 25.303 24.956">
		<path d="M24.956 10.097l-3.438-2.376-.334-4.159a.787.787 0 00-.281-.548.842.842 0 00-.588-.187l-4.159.388L13.227.241A.832.832 0 0012.652 0a.8.8 0 00-.575.241L9.148 3.21l-4.16-.389a.8.8 0 00-.869.736l-.334 4.164-3.438 2.376a.815.815 0 00-.334.522.8.8 0 00.134.6l2.407 3.4-1.11 4.026a.828.828 0 00.08.615.782.782 0 00.495.374l4.039 1.057 1.739 3.8a.77.77 0 00.455.415.758.758 0 00.615-.027l3.771-1.792 3.771 1.792a.781.781 0 00.348.08.7.7 0 00.281-.053.814.814 0 00.455-.415l1.739-3.8 4.039-1.057a.782.782 0 00.495-.374.819.819 0 00.08-.615l-1.111-4.024 2.421-3.41a.8.8 0 00.134-.6.74.74 0 00-.334-.514zm-3.745 3.905a.82.82 0 00-.12.682l.99 3.611-3.624.95a.82.82 0 00-.522.441l-1.565 3.4-3.384-1.6a.794.794 0 00-.7 0l-3.384 1.6-1.565-3.4a.855.855 0 00-.522-.441L3.2 18.296l.99-3.611a.829.829 0 00-.12-.682l-2.14-3.049L5 8.827a.826.826 0 00.348-.588l.308-3.731 3.731.348a.766.766 0 00.642-.241L12.65 1.94l2.636 2.661a.826.826 0 00.642.241l3.731-.348.308 3.731a.763.763 0 00.348.588l3.076 2.126z" stroke="none"/>
	</symbol>
	<symbol id="right-chevron" viewBox="0 0 12.41 17.719">
		<path d="M.158 17.4a.8.8 0 00.642.321.831.831 0 00.481-.16l10.808-8.067a.8.8 0 000-1.284L1.282.159a.802.802 0 10-.963 1.284l9.95 7.423-9.95 7.423A.791.791 0 00.158 17.4z" stroke="none" />
	</symbol>
	<symbol id="right-direction" viewBox="0 0 20.074 14.875">
		<path d="M0 7.439a.8.8 0 00.8.8h16.359L11.3 13.471a.8.8 0 00.535 1.4.833.833 0 00.535-.2l7.436-6.633a.791.791 0 00.267-.6.812.812 0 00-.267-.6L12.37.205a.805.805 0 10-1.07 1.2l5.858 5.229H.8a.8.8 0 00-.8.805z" stroke="none"/>
	</symbol>
	<symbol id="sad-smiley" viewBox="0 0 22.201 22.201">
		<path d="M11.1 22.2A11.1 11.1 0 100 11.1a11.107 11.107 0 0011.1 11.1zm0-20.6a9.5 9.5 0 11-9.5 9.5 9.515 9.515 0 019.5-9.5z" stroke="none"/><path d="M7.757 9.281a1.271 1.271 0 10-.9-.374 1.266 1.266 0 00.9.374z" stroke="none"/><path d="M14.123 9.281a1.271 1.271 0 10-.9-.374 1.243 1.243 0 00.9.374z" stroke="none"/><path d="M7.423 15.513c.027-.08.548-1.806 3.477-1.806 3.023 0 3.878 1.832 3.905 1.9a.809.809 0 00.736.495.641.641 0 00.308-.067.79.79 0 00.428-1.043c-.053-.12-1.244-2.889-5.39-2.889-4.226 0-5 2.889-5.029 3.009l.776.2z" stroke="none"/>
	</symbol>
	<symbol id="sales-ticket" viewBox="0 0 20.328 24.381">
		<path d="M0 .8v17.215a.781.781 0 00.388.682l9.282 5.564a.784.784 0 00.415.12.83.83 0 00.428-.12l9.442-5.911a.785.785 0 00.374-.682V.8a.8.8 0 00-.8-.8H.802A.8.8 0 000 .8zm1.6.8h17.124v15.626l-8.649 5.416-8.47-5.082V1.6z" stroke="none"/><path d="M9.415 6.299a3 3 0 10-3 3.009 3.014 3.014 0 003-3.009zm-4.4 0a1.4 1.4 0 111.4 1.4 1.4 1.4 0 01-1.4-1.4z" stroke="none"/><path d="M10.499 14.912a3.009 3.009 0 103.009-3 3.014 3.014 0 00-3.009 3zm4.4 0a1.4 1.4 0 11-1.391-1.391 1.39 1.39 0 011.391 1.391z" stroke="none"/><path d="M14.818 4.106a.806.806 0 00-1.123.147l-8.372 11.02a.806.806 0 00.147 1.123.831.831 0 00.481.16.8.8 0 00.642-.321l8.385-11.007a.8.8 0 00-.16-1.122z" stroke="none"/>
	</symbol>
	<symbol id="school-paper-clip" viewBox="0 0 20.257 22.557">
		<path d="M14.409 6.735A.803.803 0 0013.273 5.6l-8.412 8.412a2.582 2.582 0 003.651 3.651l8.813-8.815a1.255 1.255 0 00.241-.16c1.177-1.177 4.306-4.306 1.3-7.316A4.179 4.179 0 0014.877.1a7.645 7.645 0 00-3.651 2.247L1.677 11.9a5.874 5.874 0 00-1.672 4.44 6.642 6.642 0 001.886 4.387 6.392 6.392 0 004.344 1.83h.134a5.931 5.931 0 004.24-1.725l9.415-9.415a.804.804 0 00-1.137-1.137l-9.415 9.415a4.407 4.407 0 01-3.21 1.257 4.754 4.754 0 01-3.45-7.917l9.549-9.549a6.214 6.214 0 012.851-1.806 2.579 2.579 0 012.514.843 2.086 2.086 0 01.7 2.287 5.9 5.9 0 01-1.337 2.073 1.673 1.673 0 00-.16.12l-9.536 9.536a.974.974 0 11-1.378-1.378z" stroke="none"/>
	</symbol>
	<symbol id="share-arrow" viewBox="0 0 16.316 20.822">
		<path d="M15.527 8.117h-3.4a.8.8 0 100 1.6h2.581v9.5H1.605v-9.5h2.849a.8.8 0 100-1.6H.789A.829.829 0 000 8.96v11.127a.739.739 0 00.789.736h14.738a.739.739 0 00.789-.736V8.963a.829.829 0 00-.789-.846z" stroke="none"/><path d="M8.025 14.135a.8.8 0 00.8-.8V2.459l3.424 3.049a.805.805 0 101.07-1.2L8.707.2a.807.807 0 00-1.03-.027.808.808 0 00-.348.321l-4 3.838a.804.804 0 101.11 1.164l2.782-2.675v10.511a.805.805 0 00.804.803z" stroke="none"/>
	</symbol>
	<symbol id="sharing-files" viewBox="0 0 20.896 23.731">
		<path d="M17.199 6.999c.067 0 .134.013.2.013a3.507 3.507 0 10-3.49-3.713 3.609 3.609 0 00.174 1.324L5.767 9.581a3.49 3.49 0 10-2.274 6.139 3.418 3.418 0 002.167-.762l8.118 4.413a3.425 3.425 0 00.294 2.461 3.493 3.493 0 003.1 1.9 3.374 3.374 0 001.6-.415 3.517 3.517 0 001.5-4.721 3.481 3.481 0 00-3.1-1.886 3.36 3.36 0 00-1.6.4 3.531 3.531 0 00-1.043.829l-7.851-4.266a3.523 3.523 0 00.321-1.458 3.477 3.477 0 00-.267-1.351l8.225-4.882a3.353 3.353 0 002.242 1.017zm-1.685-3.6A1.881 1.881 0 0117.4 1.62h.107a1.889 1.889 0 11-1.993 1.779zm-13.909 8.83a1.886 1.886 0 111.886 1.886 1.884 1.884 0 01-1.886-1.886zm14.7 6.313a1.781 1.781 0 01.869-.214 1.9 1.9 0 011.685 1.016 1.88 1.88 0 01-.8 2.541 1.781 1.781 0 01-.869.214 1.9 1.9 0 01-1.685-1.016 1.869 1.869 0 01-.12-1.444 1.784 1.784 0 01.918-1.098z" stroke="none" />
	</symbol>
	<symbol id="shopping-store-tags" viewBox="0 0 24.745 19.954">
		<path d="M9.91 19.58a.777.777 0 00.562.214h.013a.788.788 0 00.562-.227l8.666-8.92a.787.787 0 00-.013-1.123L10.392.229A.812.812 0 009.83.002L.856.015a.793.793 0 00-.8.789L0 9.616a.778.778 0 00.241.575zM1.658 1.605L9.5 1.578l8.5 8.506-7.555 7.784L1.6 9.282z" stroke="none"/><path d="M15.153 1.271a.8.8 0 00-.013 1.137l7.677 7.81-8.118 8.372a.815.815 0 00.013 1.137.836.836 0 00.562.227.8.8 0 00.575-.241l8.666-8.934a.8.8 0 000-1.123L16.29 1.284a.816.816 0 00-1.137-.013z" stroke="none"/><circle cx=".294" cy=".294" transform="translate(5.283 5.015)" r=".294" stroke="none"/><path d="M5.577 4.211a1.1 1.1 0 101.1 1.1 1.1 1.1 0 00-1.1-1.1zm0 1.6a.508.508 0 11.508-.508.508.508 0 01-.508.515z" stroke="none"/>
	</symbol>
	<symbol id="smiling-face" viewBox="0 0 22.201 22.201">
		<path d="M11.1 22.2A11.1 11.1 0 100 11.1a11.107 11.107 0 0011.1 11.1zm0-20.6a9.5 9.5 0 11-9.5 9.5 9.515 9.515 0 019.5-9.5z" stroke="none"/><path d="M7.757 9.281a1.271 1.271 0 10-.9-.374 1.266 1.266 0 00.9.374z" stroke="none"/><path d="M14.123 9.281a1.271 1.271 0 10-.9-.374 1.243 1.243 0 00.9.374z" stroke="none"/><path d="M10.9 16.646c4.133 0 5.336-2.782 5.39-2.889a.812.812 0 00-.428-1.057.781.781 0 00-1.043.428c-.04.08-.883 1.913-3.905 1.913-2.929 0-3.45-1.725-3.477-1.805v.013l-1.565.388c.039.125.801 3.009 5.028 3.009z" stroke="none"/>
	</symbol>
	<symbol id="sort" viewBox="0 0 16.94 19.264">
		<path d="M5.917 15.391a.787.787 0 00.785-.785V.789A.781.781 0 005.446.16L.317 4.007a.785.785 0 10.942 1.256l3.873-2.9v12.243a.787.787 0 00.785.785z" stroke="none"/><path d="M11.02 4.007a.787.787 0 00-.785.785v13.687a.806.806 0 00.432.707.864.864 0 00.353.079.784.784 0 00.471-.157l5.129-3.781a.786.786 0 10-.929-1.269l-3.886 2.866V4.792a.787.787 0 00-.785-.785z" stroke="none"/>
	</symbol>
	<symbol id="star-favorite" viewBox="0 0 22.688 21.655">
		<path d="M22.645 8.217a.774.774 0 00-.68-.536l-7.131-.6L12.059.484a.785.785 0 00-.72-.484.765.765 0 00-.72.484L7.846 7.079l-7.131.6a.774.774 0 00-.68.536.806.806 0 00.236.837l5.4 4.671-1.619 6.964a.783.783 0 001.165.851l6.124-3.7 6.124 3.7a.767.767 0 00.406.118.824.824 0 00.458-.144.761.761 0 00.3-.811l-1.622-6.961 5.4-4.671a.786.786 0 00.238-.852z" stroke="none"/>
	</symbol>
	<symbol id="star-shape-favorite" viewBox="0 0 22.68 21.655">
		<path d="M21.964 7.681l-7.131-.6L12.059.484a.785.785 0 00-.72-.484.765.765 0 00-.72.484L7.846 7.079l-7.131.6a.774.774 0 00-.68.536.806.806 0 00.236.837l5.4 4.671-1.619 6.964a.783.783 0 001.165.851l6.124-3.7 6.124 3.7a.767.767 0 00.406.118.824.824 0 00.458-.144.761.761 0 00.3-.811l-1.622-6.961 5.4-4.671a.806.806 0 00.236-.837.769.769 0 00-.679-.551zm-6.346 5.182a.782.782 0 00-.249.772l1.308 5.613-4.933-2.983a.767.767 0 00-.406-.118.735.735 0 00-.406.118l-4.933 2.983 1.308-5.613a.783.783 0 00-.249-.772L2.699 9.094l5.744-.484a.782.782 0 00.654-.471l2.237-5.325 2.237 5.312a.753.753 0 00.654.471l5.744.484z" stroke="none"/>
	</symbol>
	<symbol id="tablet-backside" viewBox="0 0 17.534 20.151">
		<path d="M17.534 3.245A3.244 3.244 0 0014.288 0H3.245A3.244 3.244 0 000 3.245v13.66a3.244 3.244 0 003.245 3.245h11.043a3.244 3.244 0 003.245-3.245V3.245zm-1.567 13.66a1.67 1.67 0 01-1.675 1.675H3.245a1.67 1.67 0 01-1.678-1.675V3.245A1.67 1.67 0 013.245 1.57h11.043a1.67 1.67 0 011.679 1.675v13.66z" stroke="none"/><path d="M8.636 16.356a.732.732 0 00.55-.236.808.808 0 00.236-.55.753.753 0 00-.236-.55.808.808 0 00-.55-.236.753.753 0 00-.55.236.808.808 0 00-.236.55.753.753 0 00.236.55.732.732 0 00.55.236z" stroke="none"/>
	</symbol>
	<symbol id="telephone-call-receiver" viewBox="0 0 20.342 20.36">
		<path d="M1.768 19.012a1.388 1.388 0 00.144.118l.72.445c.026.013.065.039.092.052a8.7 8.7 0 003.52.733 7.37 7.37 0 005.286-2.054l6.791-6.791a8.011 8.011 0 001.269-8.78.529.529 0 00-.065-.118l-.458-.694c-.026-.039-.065-.079-.092-.118L17.758.589A2 2 0 0016.345 0a1.843 1.843 0 00-1.3.536l-3.528 3.533a1.924 1.924 0 00.039 2.722l1.387 1.387L8.219 12.9l-1.412-1.412a1.78 1.78 0 00-1.348-.576 1.915 1.915 0 00-1.335.55L.591 15a2.089 2.089 0 00-.584 1.356 1.891 1.891 0 00.536 1.426zm-.065-2.9l3.533-3.533a.337.337 0 01.484.026l1.963 1.963a.8.8 0 001.112 0l5.823-5.823a.808.808 0 00.236-.55.753.753 0 00-.236-.55l-1.937-1.966a.37.37 0 01-.039-.51l3.533-3.533a.238.238 0 01.183-.079.451.451 0 01.3.131l1.149 1.151.379.576a6.368 6.368 0 01-.968 6.961l-6.791 6.817a5.821 5.821 0 01-4.187 1.6 7.088 7.088 0 01-2.826-.576l-.6-.366-1.163-1.168a.345.345 0 01-.079-.249.619.619 0 01.135-.327z" stroke="none"/>
	</symbol>
	<symbol id="television-screen" viewBox="0 0 20.412 19.758">
		<path d="M2.748 15.047h6.673v3.14H4.449a.785.785 0 100 1.57h11.383a.785.785 0 000-1.57h-4.841v-3.14h6.673a2.764 2.764 0 002.748-2.748V2.774A2.787 2.787 0 0017.664 0H2.748A2.787 2.787 0 000 2.774V12.3a2.764 2.764 0 002.748 2.747zm16.094-2.722a1.153 1.153 0 01-1.151 1.151H2.722a1.153 1.153 0 01-1.152-1.15V2.717A1.153 1.153 0 012.722 1.57h14.955a1.153 1.153 0 011.152 1.147v9.6h.013z" stroke="none"/>
	</symbol>
	<symbol id="text-file-font" viewBox="0 0 21.468 18.292">
		<path d="M14.543.497a.8.8 0 00-.72-.5h-.013a.8.8 0 00-.72.484L9.192 9.214 5.881 1.138a.765.765 0 00-.72-.484h-.012a.775.775 0 00-.72.458L.072 10.847a.776.776 0 00.393 1.034.776.776 0 001.035-.393l.929-2.067h5.14l.731 1.766-2.667 5.993a.776.776 0 00.392 1.034.787.787 0 001.034-.393l1.609-3.559H18.5l1.452 3.546a.8.8 0 00.733.484.831.831 0 00.3-.065.8.8 0 00.432-1.034zm-11.4 7.354l1.979-4.437L6.941 7.85zm6.215 4.841l4.41-9.879 4.056 9.879z" stroke="none"/>
	</symbol>
	<symbol id="text-line-form" viewBox="0 0 15.963 19.627">
		<path d="M15.963.785A.787.787 0 0015.178 0H.785A.787.787 0 000 .785v18.057a.787.787 0 00.785.785h14.393a.787.787 0 00.785-.785V.785zM1.57 1.57h12.823v16.487H1.57z" stroke="none"/><path d="M11.515 4.58H4.449a.785.785 0 000 1.57h7.066a.785.785 0 000-1.57z" stroke="none"/><path d="M11.515 8.767H4.449a.785.785 0 100 1.57h7.066a.785.785 0 000-1.57z" stroke="none"/><path d="M11.515 13.216H4.449a.785.785 0 100 1.57h7.066a.785.785 0 000-1.57z" stroke="none"/>
	</symbol>
	<symbol id="thumb-down" viewBox="0 0 20.897 19.85">
		<path d="M.785 12.143h4.58a.814.814 0 00.694-.406 5.314 5.314 0 012.577 1.624c.9 1.479 2.761 5.954 2.774 5.993a.8.8 0 00.641.484c.026 0 .17.013.379.013a3.932 3.932 0 001.91-.458 2.725 2.725 0 001.374-2.552 14.258 14.258 0 00-.55-3.742c.288.026.589.052.916.052a4.305 4.305 0 003.742-1.57c1.492-2.12 1.1-4.292.759-6.2-.026-.118-.039-.249-.065-.366C20.202 3.209 19.77.749 17.69.383a27.9 27.9 0 00-4.331-.379 7.141 7.141 0 00-2.931.445 11.438 11.438 0 00-1.609.942 2.6 2.6 0 01-1.047.536 2.964 2.964 0 01-.353.013 13.26 13.26 0 01-1.426-.092.658.658 0 00.026-.157.788.788 0 00-.746-.824L.824.628a.768.768 0 00-.576.209.781.781 0 00-.248.576v9.948a.787.787 0 00.785.782zm7.131-8.649a3.805 3.805 0 001.766-.8 9.914 9.914 0 011.4-.824 5.754 5.754 0 012.264-.3 24.752 24.752 0 014.056.366c.654.118 1.086.68 1.557 3.35.026.131.039.249.065.379.314 1.766.615 3.428-.5 5.025a2.971 2.971 0 01-2.447.9 8.752 8.752 0 01-1.877-.219.774.774 0 00-.8.249.789.789 0 00-.131.824 12.911 12.911 0 01.864 4.423 1.159 1.159 0 01-.589 1.178 2.236 2.236 0 01-.9.249 60.372 60.372 0 00-2.686-5.733c-.851-1.387-3.009-2.185-4.082-2.512V3.415a14.8 14.8 0 001.531.092c.208 0 .365 0 .509-.013zM1.57 2.251l2.761.144a.446.446 0 00-.013.131v8.047H1.57z" stroke="none" />
	</symbol>
	<symbol id="thumb-up-gesture" viewBox="0 0 20.408 19.836">
		<path d="M1.07 8.256c-1.479 2.12-1.099 4.279-.759 6.176.026.131.052.262.065.393.314 1.806.746 4.266 2.839 4.632a27.9 27.9 0 004.331.379 7.141 7.141 0 002.931-.445 8.128 8.128 0 001.636-1.034 1.749 1.749 0 01.785-.445 2.426 2.426 0 01.327-.013 13.271 13.271 0 011.544.118.747.747 0 00-.118.419.776.776 0 00.785.772l4.187-.013a.776.776 0 00.785-.772V9.005a.787.787 0 00-.785-.785h-4.055a.845.845 0 00-.445.131c-.916-.288-2.565-.968-3.114-1.858A57.917 57.917 0 019.366.513a.791.791 0 00-.641-.5C8.699.013 8.555 0 8.346 0a2.9 2.9 0 00-3.233 3.005 13.5 13.5 0 00.563 3.729 9.552 9.552 0 00-.89-.039A4.278 4.278 0 001.07 8.256zm17.782 9.382l-2.826.013a.764.764 0 00.079-.34V9.787h2.748zM2.365 9.159a2.956 2.956 0 012.447-.9 8.709 8.709 0 011.871.222.774.774 0 00.8-.249.789.789 0 00.131-.824 12.484 12.484 0 01-.89-4.41 1.219 1.219 0 01.561-1.193 1.937 1.937 0 01.837-.236 52.051 52.051 0 002.579 5.736c.837 1.374 2.826 2.172 3.847 2.5v6.6a10.638 10.638 0 00-1.793-.065 2.877 2.877 0 00-1.583.772 6.978 6.978 0 01-1.335.851 5.754 5.754 0 01-2.264.3 26.635 26.635 0 01-4.056-.353c-.851-.144-1.2-1.3-1.557-3.35-.026-.131-.052-.262-.065-.393-.341-1.762-.642-3.425.47-5.008z" stroke="none"/>
	</symbol>
	<symbol id="up-arrow-sign" viewBox="0 0 15.266 20.584">
		<path d="M7.619 20.584a.826.826 0 00.823-.823V2.978L13.822 9a.833.833 0 00.618.274.855.855 0 00.549-.206.825.825 0 00.068-1.168L8.237.274A.812.812 0 007.619 0a.693.693 0 00-.178.027.819.819 0 00-.494.329L.209 7.9A.827.827 0 101.444 9l5.352-6.008v16.769a.826.826 0 00.823.823z" stroke="none"/>
	</symbol>
	<symbol id="up-chevron" viewBox="0 0 18.198 12.735">
		<path d="M9.1.002a.819.819 0 00-.659.329L.163 11.417a.823.823 0 00.659 1.317.819.819 0 00.658-.332L9.1 2.196l7.616 10.2a.824.824 0 101.314-.994L9.755.329A.819.819 0 009.1.002z" stroke="none"/>
	</symbol>
	<symbol id="uploading-file" viewBox="0 0 19.349 21.27">
		<path d="M2.525 7.493a.83.83 0 001.166.041l5.228-4.803v12.5a.824.824 0 101.647 0V2.69l5.228 4.858a.825.825 0 001.125-1.208L10.333.233a.839.839 0 00-.3-.178A1.068 1.068 0 009.743 0a.833.833 0 00-.686.371L2.566 6.326a.825.825 0 00-.041 1.167z" stroke="none"/><path d="M.823 12.213a.826.826 0 00-.823.823v7.41a.826.826 0 00.823.823h17.7a.826.826 0 00.823-.823v-7.41a.824.824 0 00-1.647 0v6.587H1.647v-6.587a.826.826 0 00-.824-.823z" stroke="none"/>
	</symbol>
	<symbol id="video-player-pause-button" viewBox="0 0 24.18 24.18">
		<path d="M12.09 0a12.09 12.09 0 1012.09 12.09A12.1 12.1 0 0012.09 0zm0 22.533A10.443 10.443 0 1122.533 12.09 10.448 10.448 0 0112.09 22.533z" stroke="none"/><path d="M9.331 6.738a.826.826 0 00-.823.823v8.645a.824.824 0 001.647 0V7.561a.826.826 0 00-.824-.823z" stroke="none"/><path d="M14.957 6.738a.826.826 0 00-.823.823v8.645a.824.824 0 101.647 0V7.561a.826.826 0 00-.824-.823z" stroke="none"/>
	</symbol>
	<symbol id="voice-recording" viewBox="0 0 16.467 24.289">
		<path d="M11.939 3.65A3.649 3.649 0 008.288 0h-.247a3.649 3.649 0 00-3.65 3.65v8.343a3.649 3.649 0 003.65 3.65h.247a3.649 3.649 0 003.65-3.65zm-1.647 8.343a2 2 0 01-2 2h-.247a2 2 0 01-2-2V3.65a2 2 0 012-2h.247a2 2 0 012 2z" stroke="none"/><path d="M.823 9.716a.826.826 0 00-.823.823 8.715 8.715 0 007.136 8.824v3.28H3.431a.824.824 0 100 1.647h9.606a.824.824 0 100-1.647H8.783v-3.211c4.282-.3 7.685-4.172 7.685-8.879a.824.824 0 00-1.647 0c0 4.007-2.95 7.259-6.587 7.259S1.65 14.546 1.65 10.539a.826.826 0 00-.827-.823z" stroke="none"/>
	</symbol>
	<symbol id="waste-can" viewBox="0 0 22.094 24.138">
		<path d="M.823 7.259H2.47v16.056a.826.826 0 00.823.823h15.099a.826.826 0 00.823-.823V7.259h2.058a.824.824 0 000-1.647h-3.927a5.86 5.86 0 00-1.5-3.787A6.505 6.505 0 0010.892 0a5.962 5.962 0 00-4.8 1.839 5.455 5.455 0 00-1.153 3.774H.823a.824.824 0 100 1.647zm6.5-4.364a4.416 4.416 0 013.559-1.248 4.976 4.976 0 013.746 1.29 4.268 4.268 0 011.057 2.676h-9.1A3.888 3.888 0 017.328 2.9zm10.242 4.364v15.233H4.117V7.259z" stroke="none"/><path d="M8.233 20.158a.826.826 0 00.823-.823V9.866a.824.824 0 10-1.647 0v9.469a.826.826 0 00.824.823z" stroke="none"/><path d="M13.45 20.158a.826.826 0 00.823-.823V9.866a.824.824 0 10-1.647 0v9.469a.826.826 0 00.824.823z" stroke="none"/>
	</symbol>
	<symbol id="web-page-home" viewBox="0 0 23.587 21.034">
		<path d="M.815 12.526h1.921v7.685a.826.826 0 00.823.823h5.627a.826.826 0 00.823-.823v-5.627h3.431v5.626a.826.826 0 00.823.823h5.352a.826.826 0 00.823-.823v-7.684h2.333a.82.82 0 00.576-1.4L12.616.247a.82.82 0 00-1.153-.014L.252 11.113a.824.824 0 00-.192.906.8.8 0 00.755.507zm11.2-10.539l8.785 8.892h-1.18a.826.826 0 00-.823.823v7.685h-3.711v-5.626a.826.826 0 00-.823-.823H9.186a.826.826 0 00-.823.823v5.626h-3.98v-7.684a.826.826 0 00-.823-.823h-.714z" stroke="none"/>
	</symbol>
	<symbol id="wireless-internet-connectivity" viewBox="0 0 22.771 17.483">
		<path d="M9.821 15.946a1.537 1.537 0 101.537-1.537 1.534 1.534 0 00-1.537 1.537zm1.647 0a.11.11 0 11-.11-.11c.069.014.11.055.11.11z" stroke="none"/><path d="M18.096 9.126a.866.866 0 00.6-.261.826.826 0 00-.055-1.166 10.756 10.756 0 00-14.5-.055.826.826 0 001.112 1.221 9.11 9.11 0 0112.282.041.81.81 0 00.561.22z" stroke="none"/><path d="M15.022 12.817a.866.866 0 00.6-.261.826.826 0 00-.055-1.166 6.2 6.2 0 00-8.371-.041.826.826 0 101.112 1.221 4.554 4.554 0 016.148.027.834.834 0 00.566.22z" stroke="none"/><path d="M21.952 5.777a.866.866 0 00.6-.261.826.826 0 00-.055-1.166A16.492 16.492 0 00.27 4.268a.826.826 0 101.112 1.221 14.846 14.846 0 0120.008.069.907.907 0 00.562.219z" stroke="none"/>
	</symbol>
	<symbol id="writing-notepad" viewBox="0 0 18.389 23.329">
		<path d="M0 4.583V22.45a.875.875 0 00.823.878h16.742a.875.875 0 00.823-.878V4.583a.875.875 0 00-.823-.878H15.1v-1.18a.875.875 0 00-.823-.878H11.5A3 3 0 009.194 0a2.858 2.858 0 00-2.251 1.647h-2.69a.875.875 0 00-.823.878v1.249c-.041-.014-.1-.069-.137-.069H.823A.875.875 0 000 4.583zm5.077-1.29h2.4a.805.805 0 00.782-.535c.124-.343.521-1.07.933-1.07.439 0 .878.741 1.016 1.1a.808.808 0 00.768.508h2.47v3.84H5.077zm-3.43 2.059h1.647c.041 0 .1.055.137.041v2.621a.781.781 0 00.823.768h10.018a.781.781 0 00.823-.768V5.352h1.647v16.33h-15.1z" stroke="none"/>
	</symbol>
</svg>
