<svg xmlns="http://www.w3.org/2000/svg" viewBox="0 0 191.185 96.041"><path d="M37.042,77.9l-1.229,1.371-2.1-1.835a6.142,6.142,0,0,1-1.673.665,7.512,7.512,0,0,1-1.713.2,6.8,6.8,0,0,1-2.894-.6,6.367,6.367,0,0,1-2.168-1.623,7.249,7.249,0,0,1-1.36-2.4,9.191,9.191,0,0,1,0-5.827,7.254,7.254,0,0,1,1.36-2.4,6.487,6.487,0,0,1,2.168-1.634,7.233,7.233,0,0,1,5.787,0,6.483,6.483,0,0,1,2.167,1.634,7.276,7.276,0,0,1,1.362,2.4,8.855,8.855,0,0,1,.473,2.9,9.485,9.485,0,0,1-.484,2.984,7.285,7.285,0,0,1-.625,1.381,4.987,4.987,0,0,1-.927,1.159Zm-6.553-3.267,1.21-1.391,1.755,1.533a4.916,4.916,0,0,0,.967-1.876,8.234,8.234,0,0,0,.031-4.154,5.578,5.578,0,0,0-.777-1.763,3.891,3.891,0,0,0-1.36-1.241,4.493,4.493,0,0,0-3.973,0,3.885,3.885,0,0,0-1.361,1.241,5.554,5.554,0,0,0-.776,1.763,8.194,8.194,0,0,0,0,4.033,5.565,5.565,0,0,0,.776,1.765,3.88,3.88,0,0,0,1.361,1.239,4.028,4.028,0,0,0,1.987.464,4.225,4.225,0,0,0,.815-.081,3.311,3.311,0,0,0,.8-.262Z"/><rect x="39.119" y="63.566" width="2.52" height="14.397"/><polygon points="44.281 63.566 47.83 63.566 51.802 74.838 51.842 74.838 55.714 63.566 59.222 63.566 59.222 77.963 56.823 77.963 56.823 66.852 56.783 66.852 52.79 77.963 50.713 77.963 46.721 66.852 46.681 66.852 46.681 77.963 44.281 77.963 44.281 63.566"/><path d="M61.843,63.566h6.875a5.336,5.336,0,0,1,3.569,1.028,3.585,3.585,0,0,1,1.19,2.864,4.154,4.154,0,0,1-.3,1.7,3.687,3.687,0,0,1-.705,1.089,2.774,2.774,0,0,1-.8.595q-.393.181-.574.242v.04a2.6,2.6,0,0,1,.7.2,2.072,2.072,0,0,1,.7.514,2.8,2.8,0,0,1,.534.917,4.066,4.066,0,0,1,.212,1.412,12.737,12.737,0,0,0,.191,2.308,3.037,3.037,0,0,0,.595,1.483h-2.7a2.363,2.363,0,0,1-.332-1.029q-.051-.564-.051-1.089a10.326,10.326,0,0,0-.121-1.7,2.965,2.965,0,0,0-.443-1.19,1.879,1.879,0,0,0-.877-.695,3.869,3.869,0,0,0-1.422-.223h-3.71v5.929h-2.52Zm2.52,6.553H68.5a2.616,2.616,0,0,0,1.834-.575,2.226,2.226,0,0,0,.626-1.723,2.681,2.681,0,0,0-.2-1.12,1.646,1.646,0,0,0-.554-.675,2.054,2.054,0,0,0-.808-.323,5.406,5.406,0,0,0-.936-.08H64.363Z"/><path d="M79.627,63.566h7a5,5,0,0,1,3.1.888A3.151,3.151,0,0,1,90.9,67.135,3.209,3.209,0,0,1,90.364,69a3.432,3.432,0,0,1-1.523,1.2v.04a3.153,3.153,0,0,1,2.017,1.26,4.552,4.552,0,0,1,.383,4.033,3.241,3.241,0,0,1-.947,1.27,4.785,4.785,0,0,1-1.654.847,8.134,8.134,0,0,1-2.4.313H79.627Zm2.52,6.029H86.26a2.254,2.254,0,0,0,1.513-.514,1.839,1.839,0,0,0,.605-1.482,1.878,1.878,0,0,0-.544-1.533,2.443,2.443,0,0,0-1.574-.443H82.147Zm0,6.311H86.6a2.511,2.511,0,0,0,1.785-.595,2.2,2.2,0,0,0,.635-1.684,2.1,2.1,0,0,0-.635-1.643A2.574,2.574,0,0,0,86.6,71.41H82.147Z"/><path d="M94.891,73.346a3.975,3.975,0,0,0,.171,1.169,2.879,2.879,0,0,0,.514.988,2.485,2.485,0,0,0,.866.675,2.852,2.852,0,0,0,1.251.252A2.766,2.766,0,0,0,99.317,76a2.57,2.57,0,0,0,.916-1.3h2.178a4.331,4.331,0,0,1-1.693,2.632,4.627,4.627,0,0,1-1.4.685,5.668,5.668,0,0,1-1.624.232,5.5,5.5,0,0,1-2.176-.4,4.5,4.5,0,0,1-1.6-1.129,4.806,4.806,0,0,1-.989-1.735,7.031,7.031,0,0,1-.333-2.218,6.3,6.3,0,0,1,.353-2.106A5.388,5.388,0,0,1,93.953,68.9a4.727,4.727,0,0,1,3.68-1.644,4.679,4.679,0,0,1,2.209.514,4.866,4.866,0,0,1,1.622,1.361,5.515,5.515,0,0,1,.937,1.946,5.949,5.949,0,0,1,.152,2.269Zm5.364-1.513a3.712,3.712,0,0,0-.233-1.049,2.746,2.746,0,0,0-.525-.877,2.59,2.59,0,0,0-.805-.6,2.389,2.389,0,0,0-1.059-.232,2.782,2.782,0,0,0-1.1.211,2.523,2.523,0,0,0-.847.585,2.911,2.911,0,0,0-.565.877,3.079,3.079,0,0,0-.231,1.089Z"/><path d="M103.9,67.538h2.157v2.017h.041a2.335,2.335,0,0,1,.393-.827,3.763,3.763,0,0,1,.7-.736,3.536,3.536,0,0,1,.919-.534,2.724,2.724,0,0,1,1.027-.2,4.813,4.813,0,0,1,.555.021l.312.04v2.218c-.161-.027-.326-.05-.494-.071a4.392,4.392,0,0,0-.494-.03,2.641,2.641,0,0,0-1.1.232,2.532,2.532,0,0,0-.9.686,3.361,3.361,0,0,0-.605,1.119A4.839,4.839,0,0,0,106.2,73v4.961h-2.3Z"/><path d="M120.236,77.419a4.44,4.44,0,0,1-1.321,3.518,5.588,5.588,0,0,1-3.8,1.16,8.01,8.01,0,0,1-1.583-.162,4.738,4.738,0,0,1-1.452-.545,3.5,3.5,0,0,1-1.1-1.008,3.061,3.061,0,0,1-.525-1.532h2.3a1.838,1.838,0,0,0,.344.787,1.737,1.737,0,0,0,.573.473,2.215,2.215,0,0,0,.736.222,6.757,6.757,0,0,0,.847.05,2.677,2.677,0,0,0,2.036-.685,2.775,2.775,0,0,0,.646-1.976V76.128h-.04a3.508,3.508,0,0,1-1.321,1.351,3.549,3.549,0,0,1-1.8.484,4.751,4.751,0,0,1-2.127-.434,4.018,4.018,0,0,1-1.452-1.189,4.945,4.945,0,0,1-.837-1.744,8.226,8.226,0,0,1-.263-2.118,6.131,6.131,0,0,1,.323-2,5.129,5.129,0,0,1,.927-1.664,4.443,4.443,0,0,1,1.482-1.138,4.518,4.518,0,0,1,1.987-.424,4,4,0,0,1,1.813.413,2.811,2.811,0,0,1,1.272,1.3h.04V67.538h2.3Zm-5.1-1.271a2.536,2.536,0,0,0,1.3-.313,2.564,2.564,0,0,0,.866-.826,3.579,3.579,0,0,0,.483-1.17,5.838,5.838,0,0,0,.152-1.32,5.178,5.178,0,0,0-.161-1.291,3.509,3.509,0,0,0-.495-1.109,2.37,2.37,0,0,0-.867-.766,2.706,2.706,0,0,0-1.28-.282,2.419,2.419,0,0,0-1.29.322,2.586,2.586,0,0,0-.847.837,3.592,3.592,0,0,0-.464,1.17,6.223,6.223,0,0,0-.14,1.3,4.957,4.957,0,0,0,.16,1.26,3.433,3.433,0,0,0,.494,1.1,2.633,2.633,0,0,0,.848.788,2.4,2.4,0,0,0,1.239.3"/><path d="M122.15,63.566h2.3v5.343h.04a3.373,3.373,0,0,1,1.26-1.18,3.729,3.729,0,0,1,1.865-.474,3.9,3.9,0,0,1,2.7.888,3.4,3.4,0,0,1,.989,2.661v7.159h-2.3V71.409a2.838,2.838,0,0,0-.523-1.784,1.9,1.9,0,0,0-1.513-.555,2.5,2.5,0,0,0-1.048.212,2.259,2.259,0,0,0-.786.585,2.788,2.788,0,0,0-.506.877,3.131,3.131,0,0,0-.18,1.068v6.151h-2.3Z"/><path d="M138.1,78.245a5.685,5.685,0,0,1-2.228-.414,4.724,4.724,0,0,1-1.653-1.139,4.858,4.858,0,0,1-1.029-1.733,7.085,7.085,0,0,1,0-4.417,4.862,4.862,0,0,1,1.029-1.734,4.751,4.751,0,0,1,1.653-1.139,6.2,6.2,0,0,1,4.456,0,4.751,4.751,0,0,1,1.653,1.139,4.876,4.876,0,0,1,1.029,1.734,7.085,7.085,0,0,1,0,4.417,4.872,4.872,0,0,1-1.029,1.733,4.724,4.724,0,0,1-1.653,1.139,5.688,5.688,0,0,1-2.228.414m0-1.815a2.64,2.64,0,0,0,1.331-.322,2.812,2.812,0,0,0,.927-.847,3.7,3.7,0,0,0,.534-1.18,5.239,5.239,0,0,0,.172-1.34,5.293,5.293,0,0,0-.172-1.332,3.565,3.565,0,0,0-.534-1.179,2.848,2.848,0,0,0-.927-.837,2.9,2.9,0,0,0-2.662,0,2.838,2.838,0,0,0-.927.837,3.567,3.567,0,0,0-.535,1.179,5.337,5.337,0,0,0-.171,1.332,5.283,5.283,0,0,0,.171,1.34,3.7,3.7,0,0,0,.535,1.18,2.8,2.8,0,0,0,.927.847,2.637,2.637,0,0,0,1.331.322"/><path d="M143.846,67.538h1.715v-.867a4.434,4.434,0,0,1,.242-1.6,2.262,2.262,0,0,1,.644-.948,2.119,2.119,0,0,1,.918-.443,5.086,5.086,0,0,1,1.079-.111,6.589,6.589,0,0,1,1.613.141V65.5a3.225,3.225,0,0,0-.475-.091,4.894,4.894,0,0,0-.594-.031,1.4,1.4,0,0,0-.8.223.969.969,0,0,0-.333.866v1.069h1.956v1.714h-1.956v8.711h-2.3V69.252h-1.715Z"/><path d="M152.616,73.346a4.008,4.008,0,0,0,.171,1.169,2.863,2.863,0,0,0,.515.988,2.481,2.481,0,0,0,.865.675,2.858,2.858,0,0,0,1.251.252A2.762,2.762,0,0,0,157.042,76a2.571,2.571,0,0,0,.917-1.3h2.178a4.326,4.326,0,0,1-1.694,2.632,4.616,4.616,0,0,1-1.4.685,5.668,5.668,0,0,1-1.624.232,5.509,5.509,0,0,1-2.176-.4,4.5,4.5,0,0,1-1.6-1.129,4.79,4.79,0,0,1-.988-1.735,7.06,7.06,0,0,1-.333-2.218,6.3,6.3,0,0,1,.352-2.106,5.391,5.391,0,0,1,1.01-1.754,4.727,4.727,0,0,1,3.679-1.644,4.676,4.676,0,0,1,2.209.514,4.859,4.859,0,0,1,1.623,1.361,5.513,5.513,0,0,1,.936,1.946,5.949,5.949,0,0,1,.152,2.269Zm5.364-1.513a3.745,3.745,0,0,0-.232-1.049,2.782,2.782,0,0,0-.525-.877,2.606,2.606,0,0,0-.806-.6,2.386,2.386,0,0,0-1.059-.232,2.777,2.777,0,0,0-1.1.211,2.527,2.527,0,0,0-.848.585,2.909,2.909,0,0,0-.564.877,3.08,3.08,0,0,0-.232,1.089Z"/><path d="M161.629,67.538h2.157v2.017h.041a2.338,2.338,0,0,1,.394-.827,3.757,3.757,0,0,1,.7-.736,3.542,3.542,0,0,1,.92-.534,2.724,2.724,0,0,1,1.027-.2,4.813,4.813,0,0,1,.555.021l.311.04v2.218c-.161-.027-.326-.05-.494-.071a4.389,4.389,0,0,0-.493-.03,2.649,2.649,0,0,0-1.1.232,2.568,2.568,0,0,0-.9.686,3.341,3.341,0,0,0-.6,1.119A4.811,4.811,0,0,0,163.929,73v4.961h-2.3Z"/><polygon points="1.729 83.458 5.998 94.277 10.249 83.458 11.978 83.458 11.978 95.798 10.802 95.798 10.802 85.134 10.768 85.134 6.55 95.798 5.445 95.798 1.21 85.134 1.176 85.134 1.176 95.798 0 95.798 0 83.458 1.729 83.458"/><path d="M14.942,92.852a3.342,3.342,0,0,0,.527,1.132,3,3,0,0,0,.916.828,2.548,2.548,0,0,0,1.33.33,2.645,2.645,0,0,0,1.867-.623,3.267,3.267,0,0,0,.933-1.659H21.6a4.362,4.362,0,0,1-1.27,2.352,3.8,3.8,0,0,1-2.619.828,4.159,4.159,0,0,1-1.823-.37,3.358,3.358,0,0,1-1.253-1.022,4.4,4.4,0,0,1-.717-1.5,6.813,6.813,0,0,1-.234-1.806,6.469,6.469,0,0,1,.234-1.728,4.611,4.611,0,0,1,.717-1.512,3.593,3.593,0,0,1,1.253-1.072,3.859,3.859,0,0,1,1.823-.406,3.524,3.524,0,0,1,3.068,1.564,4.706,4.706,0,0,1,.683,1.609,7.048,7.048,0,0,1,.173,1.839H14.777a4.815,4.815,0,0,0,.165,1.219m5.392-3.329a3.3,3.3,0,0,0-.562-1.01,2.8,2.8,0,0,0-.881-.708,2.547,2.547,0,0,0-1.176-.269,2.588,2.588,0,0,0-1.193.269,2.8,2.8,0,0,0-.881.708,3.508,3.508,0,0,0-.578,1.02,4.965,4.965,0,0,0-.286,1.184H20.55a3.982,3.982,0,0,0-.216-1.194"/><path d="M29.865,95.8V94.105h-.034a2.59,2.59,0,0,1-.51.8,3.311,3.311,0,0,1-.769.613,3.921,3.921,0,0,1-.925.389,3.568,3.568,0,0,1-.976.139,3.955,3.955,0,0,1-1.772-.372,3.553,3.553,0,0,1-1.253-1.02,4.372,4.372,0,0,1-.743-1.5,6.864,6.864,0,0,1,0-3.613,4.386,4.386,0,0,1,.743-1.5A3.652,3.652,0,0,1,24.879,87a3.889,3.889,0,0,1,1.772-.379,3.971,3.971,0,0,1,.976.12,3.216,3.216,0,0,1,.89.372,3.091,3.091,0,0,1,.734.613,2.568,2.568,0,0,1,.493.847h.035V83.459h1.088V95.8Zm-5.971-3.086a3.809,3.809,0,0,0,.519,1.219,2.831,2.831,0,0,0,.907.872,2.5,2.5,0,0,0,1.331.338,2.911,2.911,0,0,0,1.46-.338,2.867,2.867,0,0,0,.968-.872,3.606,3.606,0,0,0,.536-1.219,5.834,5.834,0,0,0,0-2.747,3.615,3.615,0,0,0-.536-1.219,2.89,2.89,0,0,0-.968-.873,2.933,2.933,0,0,0-1.46-.337,2.516,2.516,0,0,0-1.331.337,2.855,2.855,0,0,0-.907.873,3.818,3.818,0,0,0-.519,1.219,5.8,5.8,0,0,0,0,2.747"/><path d="M33.961,85.2H32.872V83.458h1.089Zm0,10.6H32.872V86.879h1.089Z"/><path d="M41.427,88.108a2.368,2.368,0,0,0-1.693-.57,2.753,2.753,0,0,0-1.366.328,2.992,2.992,0,0,0-.976.864,3.913,3.913,0,0,0-.588,1.218,4.989,4.989,0,0,0,0,2.783,3.929,3.929,0,0,0,.588,1.219,2.989,2.989,0,0,0,.976.863,2.743,2.743,0,0,0,1.366.329,2.406,2.406,0,0,0,.95-.19,2.554,2.554,0,0,0,.8-.527,2.819,2.819,0,0,0,.571-.8,2.973,2.973,0,0,0,.276-1.019h1.089a4.112,4.112,0,0,1-1.193,2.531,3.489,3.489,0,0,1-2.488.908,4.175,4.175,0,0,1-1.806-.372,3.813,3.813,0,0,1-1.322-1.011,4.4,4.4,0,0,1-.813-1.5,6.159,6.159,0,0,1,0-3.646,4.391,4.391,0,0,1,.813-1.5A3.936,3.936,0,0,1,37.928,87a4.1,4.1,0,0,1,1.806-.379,3.878,3.878,0,0,1,2.428.76,3.243,3.243,0,0,1,1.183,2.3H42.257a2.991,2.991,0,0,0-.83-1.573"/><path d="M45.075,88.262a2.55,2.55,0,0,1,.751-.933,3.2,3.2,0,0,1,1.115-.536,5.439,5.439,0,0,1,1.418-.172,6.223,6.223,0,0,1,1.174.112,2.832,2.832,0,0,1,1.055.423,2.313,2.313,0,0,1,.76.872,3.156,3.156,0,0,1,.294,1.462v4.735a.573.573,0,0,0,.639.657.829.829,0,0,0,.346-.07v.917c-.126.023-.239.04-.337.051a3.158,3.158,0,0,1-.372.018,1.648,1.648,0,0,1-.665-.113.887.887,0,0,1-.389-.319,1.21,1.21,0,0,1-.181-.494,4.187,4.187,0,0,1-.043-.63h-.035a7.309,7.309,0,0,1-.6.769,2.982,2.982,0,0,1-.674.562,3.147,3.147,0,0,1-.847.346,4.673,4.673,0,0,1-1.132.121,4.426,4.426,0,0,1-1.167-.148,2.6,2.6,0,0,1-.95-.466,2.236,2.236,0,0,1-.64-.812,2.709,2.709,0,0,1-.233-1.167,2.3,2.3,0,0,1,.415-1.461,2.62,2.62,0,0,1,1.1-.8,6.327,6.327,0,0,1,1.538-.389q.857-.112,1.737-.216c.231-.023.432-.052.605-.087a1.036,1.036,0,0,0,.432-.181.845.845,0,0,0,.269-.354,1.533,1.533,0,0,0,.094-.587,1.987,1.987,0,0,0-.182-.908,1.438,1.438,0,0,0-.5-.561,2.006,2.006,0,0,0-.744-.286,5,5,0,0,0-.907-.077,2.758,2.758,0,0,0-1.694.491,1.938,1.938,0,0,0-.691,1.583H44.746a3.625,3.625,0,0,1,.329-1.349m5.444,2.662a.627.627,0,0,1-.4.276,4.014,4.014,0,0,1-.518.121q-.691.121-1.426.217a7.743,7.743,0,0,0-1.339.285,2.615,2.615,0,0,0-.994.544,1.3,1.3,0,0,0-.39,1.011,1.579,1.579,0,0,0,.165.735,1.812,1.812,0,0,0,.441.553,1.923,1.923,0,0,0,.639.354,2.322,2.322,0,0,0,.743.121,3.729,3.729,0,0,0,1.192-.19,2.933,2.933,0,0,0,.995-.553,2.684,2.684,0,0,0,.673-.882,2.652,2.652,0,0,0,.251-1.176V90.924Z"/><rect x="53.75" y="83.458" width="1.089" height="12.34"/><path d="M66.383,83.458a5.357,5.357,0,0,1,1.444.19,3.5,3.5,0,0,1,1.192.579,2.79,2.79,0,0,1,.812,1,3.223,3.223,0,0,1,.3,1.443,3.461,3.461,0,0,1-.606,2.039,2.756,2.756,0,0,1-1.8,1.106v.035a2.718,2.718,0,0,1,1,.32,2.006,2.006,0,0,1,.648.6,2.453,2.453,0,0,1,.363.838,6.114,6.114,0,0,1,.147,1.028c.011.208.023.461.034.761s.035.6.069.907a5.617,5.617,0,0,0,.165.863,1.648,1.648,0,0,0,.3.632h-1.3A1.53,1.53,0,0,1,69,95.375a3.9,3.9,0,0,1-.087-.519c-.017-.178-.031-.355-.043-.528s-.023-.322-.034-.448c-.024-.438-.061-.874-.113-1.3a3.6,3.6,0,0,0-.328-1.158,2.037,2.037,0,0,0-.727-.821,2.19,2.19,0,0,0-1.3-.277H61.907V95.8H60.732V83.458ZM66.3,89.317a3.169,3.169,0,0,0,1.02-.164,2.558,2.558,0,0,0,.846-.475,2.318,2.318,0,0,0,.579-.752,2.27,2.27,0,0,0,.217-1.011,2.433,2.433,0,0,0-.657-1.8,2.727,2.727,0,0,0-2.005-.656h-4.39v4.856Z"/><path d="M72.769,92.852a3.342,3.342,0,0,0,.527,1.132,2.992,2.992,0,0,0,.917.828,2.548,2.548,0,0,0,1.33.33,2.649,2.649,0,0,0,1.867-.623,3.265,3.265,0,0,0,.932-1.659h1.09a4.357,4.357,0,0,1-1.271,2.352,3.8,3.8,0,0,1-2.618.828,4.172,4.172,0,0,1-1.824-.37,3.371,3.371,0,0,1-1.252-1.022,4.4,4.4,0,0,1-.717-1.5,6.813,6.813,0,0,1-.234-1.806,6.469,6.469,0,0,1,.234-1.728,4.611,4.611,0,0,1,.717-1.512,3.608,3.608,0,0,1,1.252-1.072,3.872,3.872,0,0,1,1.824-.406,3.527,3.527,0,0,1,3.068,1.564,4.686,4.686,0,0,1,.682,1.609,7.048,7.048,0,0,1,.174,1.839H72.605a4.812,4.812,0,0,0,.164,1.219m5.392-3.329a3.3,3.3,0,0,0-.561-1.01,2.8,2.8,0,0,0-.882-.708,2.539,2.539,0,0,0-1.175-.269,2.578,2.578,0,0,0-1.192.269,2.8,2.8,0,0,0-.882.708,3.533,3.533,0,0,0-.579,1.02,5.011,5.011,0,0,0-.285,1.184h5.773a4.015,4.015,0,0,0-.217-1.194"/><path d="M85.981,88.617a1.776,1.776,0,0,0-.51-.614,2.079,2.079,0,0,0-.734-.354,3.362,3.362,0,0,0-.882-.112,3.558,3.558,0,0,0-.734.078,2.258,2.258,0,0,0-.683.259,1.472,1.472,0,0,0-.5.475,1.308,1.308,0,0,0-.19.726,1.028,1.028,0,0,0,.181.614,1.606,1.606,0,0,0,.459.423,2.9,2.9,0,0,0,.605.285q.327.112.6.182l1.451.327a4.227,4.227,0,0,1,.925.252,3,3,0,0,1,.812.474,2.331,2.331,0,0,1,.579.727,2.188,2.188,0,0,1,.224,1.019,2.242,2.242,0,0,1-.327,1.236,2.7,2.7,0,0,1-.839.83,3.561,3.561,0,0,1-1.149.458,5.975,5.975,0,0,1-1.262.138,4.1,4.1,0,0,1-2.549-.743,3.159,3.159,0,0,1-1.114-2.385h1.088a2.154,2.154,0,0,0,.8,1.668,2.918,2.918,0,0,0,1.824.561,4.082,4.082,0,0,0,.821-.087,2.632,2.632,0,0,0,.787-.293,1.9,1.9,0,0,0,.595-.527,1.294,1.294,0,0,0,.233-.786,1.257,1.257,0,0,0-.163-.666,1.441,1.441,0,0,0-.441-.449,2.775,2.775,0,0,0-.631-.3q-.354-.12-.717-.207l-1.4-.312a7.7,7.7,0,0,1-.985-.319,3.164,3.164,0,0,1-.786-.449,1.884,1.884,0,0,1-.528-.657,2.186,2.186,0,0,1-.189-.959,2.14,2.14,0,0,1,.3-1.159,2.376,2.376,0,0,1,.786-.778,3.668,3.668,0,0,1,1.081-.431,5.281,5.281,0,0,1,1.183-.138,4.337,4.337,0,0,1,1.253.173,2.881,2.881,0,0,1,1.019.535,2.612,2.612,0,0,1,.7.9,3.207,3.207,0,0,1,.294,1.262H86.189a2.039,2.039,0,0,0-.208-.873"/><path d="M89.879,92.852a3.342,3.342,0,0,0,.527,1.132,3,3,0,0,0,.916.828,2.55,2.55,0,0,0,1.332.33,2.648,2.648,0,0,0,1.866-.623,3.274,3.274,0,0,0,.933-1.659h1.089a4.368,4.368,0,0,1-1.27,2.352,3.8,3.8,0,0,1-2.618.828,4.171,4.171,0,0,1-1.825-.37,3.379,3.379,0,0,1-1.252-1.022,4.438,4.438,0,0,1-.718-1.5,6.855,6.855,0,0,1-.234-1.806,6.509,6.509,0,0,1,.234-1.728,4.653,4.653,0,0,1,.718-1.512,3.617,3.617,0,0,1,1.252-1.072,3.87,3.87,0,0,1,1.825-.406,3.521,3.521,0,0,1,3.066,1.564,4.669,4.669,0,0,1,.684,1.609,7.091,7.091,0,0,1,.173,1.839H89.715a4.858,4.858,0,0,0,.164,1.219m5.393-3.329a3.318,3.318,0,0,0-.562-1.01,2.809,2.809,0,0,0-.882-.708,2.544,2.544,0,0,0-1.174-.269,2.584,2.584,0,0,0-1.194.269,2.816,2.816,0,0,0-.881.708A3.556,3.556,0,0,0,90,89.533a5.011,5.011,0,0,0-.285,1.184h5.773a4.014,4.014,0,0,0-.216-1.194"/><path d="M98.184,88.262a2.56,2.56,0,0,1,.751-.933,3.2,3.2,0,0,1,1.116-.536,5.418,5.418,0,0,1,1.416-.172,6.26,6.26,0,0,1,1.176.112,2.829,2.829,0,0,1,1.053.423,2.306,2.306,0,0,1,.761.872,3.181,3.181,0,0,1,.294,1.462v4.735a.573.573,0,0,0,.64.657.817.817,0,0,0,.344-.07v.917c-.127.023-.239.04-.337.051a3.127,3.127,0,0,1-.371.018,1.65,1.65,0,0,1-.666-.113.884.884,0,0,1-.388-.319,1.169,1.169,0,0,1-.181-.494,4.18,4.18,0,0,1-.044-.63h-.034a7.309,7.309,0,0,1-.6.769,2.944,2.944,0,0,1-.675.562,3.167,3.167,0,0,1-.846.346,4.679,4.679,0,0,1-1.132.121,4.426,4.426,0,0,1-1.167-.148,2.618,2.618,0,0,1-.951-.466,2.223,2.223,0,0,1-.639-.812,2.709,2.709,0,0,1-.233-1.167,2.292,2.292,0,0,1,.416-1.461,2.6,2.6,0,0,1,1.095-.8,6.339,6.339,0,0,1,1.538-.389q.858-.112,1.738-.216c.229-.023.431-.052.6-.087a1.035,1.035,0,0,0,.433-.181.833.833,0,0,0,.267-.354,1.511,1.511,0,0,0,.1-.587,1.988,1.988,0,0,0-.181-.908,1.456,1.456,0,0,0-.5-.561,2,2,0,0,0-.745-.286,5.006,5.006,0,0,0-.906-.077,2.756,2.756,0,0,0-1.694.491,1.939,1.939,0,0,0-.693,1.583H97.855a3.645,3.645,0,0,1,.329-1.349m5.443,2.662a.619.619,0,0,1-.4.276,4.052,4.052,0,0,1-.518.121q-.693.121-1.427.217a7.817,7.817,0,0,0-1.34.285,2.626,2.626,0,0,0-.993.544,1.3,1.3,0,0,0-.388,1.011,1.591,1.591,0,0,0,.164.735,1.782,1.782,0,0,0,.441.553,1.923,1.923,0,0,0,.639.354,2.331,2.331,0,0,0,.743.121,3.744,3.744,0,0,0,1.193-.19,2.943,2.943,0,0,0,.993-.553,2.628,2.628,0,0,0,.925-2.058V90.924Z"/><path d="M107.845,86.88v2.092h.035a3.418,3.418,0,0,1,1.287-1.676,3.361,3.361,0,0,1,2.081-.536v1.088a3.307,3.307,0,0,0-1.346.2,3.019,3.019,0,0,0-1.047.666,2.987,2.987,0,0,0-.682,1.028,3.425,3.425,0,0,0-.242,1.305V95.8h-1.088V86.88Z"/><path d="M117.35,88.108a2.368,2.368,0,0,0-1.693-.57,2.751,2.751,0,0,0-1.366.328,2.992,2.992,0,0,0-.976.864,3.891,3.891,0,0,0-.588,1.218,4.989,4.989,0,0,0,0,2.783,3.907,3.907,0,0,0,.588,1.219,2.989,2.989,0,0,0,.976.863,2.74,2.74,0,0,0,1.366.329,2.418,2.418,0,0,0,.951-.19,2.577,2.577,0,0,0,.8-.527,2.811,2.811,0,0,0,.568-.8,3,3,0,0,0,.278-1.019h1.089a4.117,4.117,0,0,1-1.193,2.531,3.5,3.5,0,0,1-2.488.908,4.176,4.176,0,0,1-1.807-.372,3.81,3.81,0,0,1-1.321-1.011,4.412,4.412,0,0,1-.813-1.5,6.159,6.159,0,0,1,0-3.646,4.408,4.408,0,0,1,.813-1.5A3.932,3.932,0,0,1,113.85,87a4.106,4.106,0,0,1,1.807-.379,3.876,3.876,0,0,1,2.428.76,3.251,3.251,0,0,1,1.183,2.3h-1.089a2.99,2.99,0,0,0-.829-1.573"/><path d="M121.844,83.458v4.96h.034a2.617,2.617,0,0,1,1.107-1.305,3.248,3.248,0,0,1,1.745-.492,4.378,4.378,0,0,1,1.564.242,2.479,2.479,0,0,1,1.011.682,2.531,2.531,0,0,1,.535,1.08A6.075,6.075,0,0,1,128,90.06V95.8h-1.088V90.233a5.114,5.114,0,0,0-.1-1.064,2.241,2.241,0,0,0-.363-.854,1.753,1.753,0,0,0-.7-.571,2.557,2.557,0,0,0-1.1-.207,2.78,2.78,0,0,0-1.166.233,2.526,2.526,0,0,0-.864.64,2.952,2.952,0,0,0-.554.967,3.948,3.948,0,0,0-.215,1.219v5.2h-1.089V83.458Z"/><rect x="134.028" y="83.458" width="1.174" height="12.34"/><path d="M138.729,86.88v1.539h.034a2.6,2.6,0,0,1,1.107-1.3,3.248,3.248,0,0,1,1.745-.492,4.364,4.364,0,0,1,1.562.241,2.5,2.5,0,0,1,1.013.682,2.578,2.578,0,0,1,.537,1.081,6.186,6.186,0,0,1,.153,1.435V95.8h-1.088V90.234a5.178,5.178,0,0,0-.1-1.064,2.246,2.246,0,0,0-.363-.855,1.768,1.768,0,0,0-.7-.57,2.554,2.554,0,0,0-1.1-.208,2.77,2.77,0,0,0-1.167.234,2.5,2.5,0,0,0-.863.639,2.966,2.966,0,0,0-.555.968,3.977,3.977,0,0,0-.215,1.219v5.2h-1.09V86.88Z"/><path d="M152.156,88.617a1.784,1.784,0,0,0-.509-.614,2.117,2.117,0,0,0-.735-.354,3.36,3.36,0,0,0-.881-.112,3.574,3.574,0,0,0-.735.078,2.258,2.258,0,0,0-.683.259,1.46,1.46,0,0,0-.5.475,1.308,1.308,0,0,0-.191.726,1.022,1.022,0,0,0,.182.614,1.589,1.589,0,0,0,.458.423,2.926,2.926,0,0,0,.6.285c.218.075.42.136.6.182l1.451.327a4.182,4.182,0,0,1,.925.252,3.009,3.009,0,0,1,.813.474,2.345,2.345,0,0,1,.579.727,2.176,2.176,0,0,1,.223,1.019,2.242,2.242,0,0,1-.326,1.236,2.683,2.683,0,0,1-.84.83,3.537,3.537,0,0,1-1.148.458,5.982,5.982,0,0,1-1.262.138,4.1,4.1,0,0,1-2.55-.743,3.165,3.165,0,0,1-1.113-2.385h1.088a2.152,2.152,0,0,0,.8,1.668,2.911,2.911,0,0,0,1.823.561,4.082,4.082,0,0,0,.821-.087,2.6,2.6,0,0,0,.785-.293,1.892,1.892,0,0,0,.6-.527,1.3,1.3,0,0,0,.234-.786,1.248,1.248,0,0,0-.165-.666,1.416,1.416,0,0,0-.44-.449,2.775,2.775,0,0,0-.631-.3q-.354-.12-.718-.207l-1.4-.312a7.6,7.6,0,0,1-.985-.319,3.171,3.171,0,0,1-.787-.449,1.89,1.89,0,0,1-.526-.657,2.43,2.43,0,0,1,.111-2.118,2.389,2.389,0,0,1,.787-.778A3.657,3.657,0,0,1,149,86.759a5.288,5.288,0,0,1,1.183-.138,4.337,4.337,0,0,1,1.253.173,2.881,2.881,0,0,1,1.019.535,2.638,2.638,0,0,1,.7.9,3.242,3.242,0,0,1,.294,1.262h-1.089a2.053,2.053,0,0,0-.208-.873"/><path d="M158.966,86.88V87.8h-1.814v6.014a1.951,1.951,0,0,0,.146.838c.1.2.344.314.734.337a8.327,8.327,0,0,0,.934-.052v.917c-.161,0-.322,0-.483.017s-.324.016-.485.016a2.154,2.154,0,0,1-1.52-.422,2.127,2.127,0,0,1-.415-1.564V87.8h-1.556V86.88h1.556V84.2h1.089V86.88Z"/><path d="M161.731,85.2h-1.09V83.458h1.09Zm0,10.6h-1.09V86.879h1.09Z"/><path d="M167.451,86.88V87.8h-1.813v6.014a1.953,1.953,0,0,0,.145.838c.1.2.343.314.735.337a8.309,8.309,0,0,0,.933-.052v.917c-.161,0-.321,0-.483.017s-.324.016-.485.016a1.605,1.605,0,0,1-1.934-1.986V87.8h-1.556V86.88h1.556V84.2h1.089V86.88Z"/><path d="M175.332,95.8V94.191H175.3a3.086,3.086,0,0,1-1.255,1.374,3.577,3.577,0,0,1-1.823.475,3.991,3.991,0,0,1-1.444-.233,2.406,2.406,0,0,1-.966-.666,2.679,2.679,0,0,1-.544-1.055,5.264,5.264,0,0,1-.173-1.416V86.879h1.089v5.808a2.9,2.9,0,0,0,.56,1.832,2.811,2.811,0,0,0,3.033.32,2.552,2.552,0,0,0,.83-.8,3.617,3.617,0,0,0,.485-1.149,5.67,5.67,0,0,0,.155-1.322V86.879h1.088V95.8Z"/><path d="M182.021,86.88V87.8h-1.815v6.014a1.951,1.951,0,0,0,.146.838c.1.2.345.314.735.337a8.367,8.367,0,0,0,.934-.052v.917c-.162,0-.323,0-.483.017s-.324.016-.486.016a1.608,1.608,0,0,1-1.935-1.986V87.8H177.56V86.88h1.557V84.2h1.089V86.88Z"/><path d="M184.483,92.852a3.361,3.361,0,0,0,.527,1.132,3,3,0,0,0,.916.828,2.552,2.552,0,0,0,1.331.33,2.649,2.649,0,0,0,1.867-.623,3.265,3.265,0,0,0,.932-1.659h1.09a4.363,4.363,0,0,1-1.271,2.352,3.8,3.8,0,0,1-2.618.828,4.172,4.172,0,0,1-1.824-.37,3.371,3.371,0,0,1-1.252-1.022,4.4,4.4,0,0,1-.717-1.5,6.813,6.813,0,0,1-.234-1.806,6.469,6.469,0,0,1,.234-1.728,4.611,4.611,0,0,1,.717-1.512,3.608,3.608,0,0,1,1.252-1.072,3.872,3.872,0,0,1,1.824-.406,3.527,3.527,0,0,1,3.068,1.564,4.7,4.7,0,0,1,.682,1.609,7,7,0,0,1,.173,1.839h-6.861a4.812,4.812,0,0,0,.164,1.219m5.392-3.329a3.274,3.274,0,0,0-.561-1.01,2.8,2.8,0,0,0-.882-.708,2.542,2.542,0,0,0-1.175-.269,2.575,2.575,0,0,0-1.192.269,2.786,2.786,0,0,0-.882.708,3.556,3.556,0,0,0-.579,1.02,5.011,5.011,0,0,0-.285,1.184h5.773a4.015,4.015,0,0,0-.217-1.194"/><path d="M77.583,24.547,95.168,14.354c1.377.794,16.272,9.347,17.649,10.139,0,1.042-.009,8.764,0,14.413,1.873-1.085,3.254-1.884,3.66-2.118-.006-1.92,0-22.629,0-24.548C114.814,11.284,96.824.958,95.161,0,93.5.963,75.59,11.344,73.933,12.307c0,1.918,0,22.631,0,24.549.4.23,1.789,1.019,3.65,2.091-.008-5.649,0-13.359,0-14.4"/><path d="M83.181,37.918l12-6.955,12.038,6.917c0,.608,0,4.556,0,8.1,1.924-1.117,3.416-1.979,3.792-2.2,0-1.426,0-16.813,0-18.239-1.237-.709-14.6-8.383-15.839-9.094-1.233.716-14.541,8.428-15.773,9.143,0,1.426,0,16.815,0,18.24.374.215,1.87,1.067,3.782,2.168-.007-3.538,0-7.475,0-8.082"/><path d="M95.185,33.079c.8.458,9.412,5.4,10.209,5.864,0,.917,0,10.837,0,11.756-.8.46-9.379,5.434-10.173,5.9-.8-.459-9.409-5.4-10.2-5.862,0-.92,0-10.841,0-11.758.794-.462,9.373-5.433,10.169-5.895"/></svg>