<svg xmlns="http://www.w3.org/2000/svg" viewBox="0 0 280 65"><path d="M74.5 31.2L73 32.8l-2.4-2.1c-.6.4-1.3.6-1.9.8-.7.2-1.3.2-2 .2-1.2 0-2.3-.2-3.3-.7-1-.5-1.8-1.1-2.5-1.9-.7-.8-1.2-1.7-1.6-2.8-.4-1-.5-2.2-.5-3.4 0-1.2.2-2.3.5-3.3.4-1.1.9-2 1.6-2.8.7-.8 1.5-1.4 2.5-1.9s2.1-.7 3.3-.7c1.2 0 2.3.2 3.3.7 1 .5 1.8 1.1 2.5 1.9.7.8 1.2 1.7 1.6 2.8.4 1.1.5 2.2.5 3.3 0 .6 0 1.1-.1 1.7-.1.6-.2 1.1-.4 1.7-.2.6-.4 1.1-.7 1.6-.3.5-.6.9-1.1 1.3l2.2 2zm-7.6-3.8l1.4-1.6 2 1.8c.5-.6.9-1.4 1.1-2.2.2-.8.3-1.6.3-2.5 0-.8-.1-1.6-.3-2.3-.2-.8-.5-1.4-.9-2-.4-.6-.9-1.1-1.6-1.4s-1.4-.5-2.3-.5c-.9 0-1.6.2-2.3.5-.6.4-1.2.8-1.6 1.4-.4.6-.7 1.3-.9 2-.2.8-.3 1.5-.3 2.3 0 .8.1 1.6.3 2.3.2.8.5 1.4.9 2 .4.6.9 1.1 1.6 1.4.6.4 1.4.5 2.3.5.3 0 .6 0 .9-.1l.9-.3-1.5-1.3zM76.8 14.7h2.9v16.5h-2.9V14.7zM82.8 14.7h4.1l4.6 12.9 4.4-12.9h4v16.5h-2.8V18.5l-4.6 12.8h-2.4l-4.6-12.8v12.8h-2.8V14.7zM102.9 14.7h7.9c1.8 0 3.2.4 4.1 1.2.9.8 1.4 1.9 1.4 3.3 0 .8-.1 1.4-.3 2-.2.5-.5.9-.8 1.3-.3.3-.6.5-.9.7-.3.1-.5.2-.7.3.2 0 .5.1.8.2.3.1.6.3.8.6.2.3.5.6.6 1.1.2.4.2 1 .2 1.6 0 1 .1 1.9.2 2.7.1.8.4 1.4.7 1.7h-3.1c-.2-.4-.3-.7-.4-1.2 0-.4-.1-.8-.1-1.3 0-.8 0-1.4-.1-2-.1-.5-.3-1-.5-1.4-.2-.4-.6-.6-1-.8-.4-.2-1-.3-1.6-.3h-4.3v6.8h-2.9V14.7zm2.9 7.5h4.7c.9 0 1.6-.2 2.1-.7.5-.4.7-1.1.7-2 0-.5-.1-1-.2-1.3-.2-.3-.4-.6-.6-.8-.3-.2-.6-.3-.9-.4-.3-.1-.7-.1-1.1-.1h-4.7v5.3zM123.4 14.7h8c1.5 0 2.7.3 3.6 1 .9.7 1.3 1.7 1.3 3.1 0 .8-.2 1.5-.6 2.1-.4.6-1 1.1-1.7 1.4 1 .2 1.8.7 2.3 1.4.5.7.8 1.7.8 2.8 0 .6-.1 1.3-.3 1.8-.2.6-.6 1.1-1.1 1.5-.5.4-1.1.7-1.9 1-.8.2-1.7.4-2.8.4h-7.6V14.7zm2.9 6.9h4.7c.7 0 1.3-.2 1.7-.6.5-.4.7-1 .7-1.7 0-.8-.2-1.4-.6-1.8-.4-.3-1-.5-1.8-.5h-4.7v4.6zm0 7.3h5.1c.9 0 1.6-.2 2-.7.5-.5.7-1.1.7-1.9 0-.8-.2-1.4-.7-1.9-.5-.4-1.2-.7-2-.7h-5.1v5.2zM140.9 26c0 .5.1.9.2 1.3s.3.8.6 1.1c.3.3.6.6 1 .8.4.2.9.3 1.4.3.8 0 1.4-.2 1.9-.5s.8-.8 1.1-1.5h2.5c-.1.6-.4 1.2-.7 1.7-.3.5-.7.9-1.2 1.3-.5.3-1 .6-1.6.8-.6.2-1.2.3-1.9.3-.9 0-1.8-.2-2.5-.5s-1.3-.7-1.8-1.3c-.5-.6-.9-1.2-1.1-2-.3-.8-.4-1.6-.4-2.5 0-.8.1-1.7.4-2.4.3-.8.7-1.4 1.2-2 .5-.6 1.1-1 1.8-1.4.7-.3 1.5-.5 2.4-.5.9 0 1.8.2 2.5.6.7.4 1.4.9 1.9 1.6.5.6.9 1.4 1.1 2.2.2.8.3 1.7.2 2.6h-9zm6.2-1.8c0-.4-.1-.8-.3-1.2-.1-.4-.3-.7-.6-1-.3-.3-.6-.5-.9-.7-.4-.2-.8-.3-1.2-.3-.5 0-.9.1-1.3.2-.4.2-.7.4-1 .7-.3.3-.5.6-.6 1-.2.4-.3.8-.3 1.3h6.2zM151.3 19.3h2.5v2.3c.1-.3.2-.6.5-1 .2-.3.5-.6.8-.8.3-.3.7-.5 1.1-.6.4-.2.8-.2 1.2-.2h1v2.5c-.2 0-.4-.1-.6-.1h-.6c-.4 0-.9.1-1.3.3-.4.2-.7.4-1 .8-.3.3-.5.8-.7 1.3-.2.5-.3 1.1-.3 1.8v5.7h-2.6v-12zM170 30.6c0 1.8-.5 3.2-1.5 4-1 .9-2.5 1.3-4.4 1.3-.6 0-1.2-.1-1.8-.2-.6-.1-1.2-.3-1.7-.6s-.9-.7-1.3-1.2c-.3-.5-.5-1.1-.6-1.8h2.6c.1.4.2.7.4.9.2.2.4.4.7.5.3.1.5.2.8.3.3 0 .6.1 1 .1 1.1 0 1.8-.3 2.3-.8.5-.5.7-1.3.7-2.3V29c-.4.7-.9 1.2-1.5 1.6-.6.4-1.3.6-2.1.6-1 0-1.8-.2-2.4-.5-.7-.3-1.2-.8-1.7-1.4-.4-.6-.8-1.2-1-2-.2-.8-.3-1.6-.3-2.4 0-.8.1-1.6.4-2.3.2-.7.6-1.4 1.1-1.9.5-.5 1-1 1.7-1.3.7-.3 1.4-.5 2.3-.5.8 0 1.5.2 2.1.5.6.3 1.1.8 1.5 1.5v-1.6h2.6v11.3zm-5.8-1.4c.6 0 1.1-.1 1.5-.4.4-.2.7-.6 1-.9.3-.4.4-.8.6-1.3.1-.5.2-1 .2-1.5s-.1-1-.2-1.5-.3-.9-.6-1.3-.6-.7-1-.9c-.4-.2-.9-.3-1.5-.3s-1.1.1-1.5.4c-.4.2-.7.6-1 1-.2.4-.4.8-.5 1.3-.1.5-.2 1-.2 1.5s.1 1 .2 1.4c.1.5.3.9.6 1.3s.6.7 1 .9c.3.2.8.3 1.4.3zM172.2 14.7h2.6v6.1c.3-.5.8-1 1.4-1.4.6-.4 1.4-.5 2.1-.5 1.3 0 2.3.3 3.1 1 .8.7 1.1 1.7 1.1 3.1v8.2h-2.6v-7.5c0-.9-.2-1.6-.6-2-.4-.4-1-.6-1.7-.6-.4 0-.8.1-1.2.2-.4.2-.7.4-.9.7-.2.3-.4.6-.6 1-.1.4-.2.8-.2 1.2v7.1h-2.6V14.7zM190.6 31.6c-1 0-1.8-.2-2.6-.5-.7-.3-1.4-.8-1.9-1.3-.5-.6-.9-1.2-1.2-2-.3-.8-.4-1.6-.4-2.5 0-.9.1-1.8.4-2.5.3-.8.7-1.4 1.2-2 .5-.6 1.2-1 1.9-1.3.7-.3 1.6-.5 2.6-.5s1.8.2 2.6.5c.7.3 1.4.8 1.9 1.3.5.6.9 1.2 1.2 2 .3.8.4 1.6.4 2.5 0 .9-.1 1.8-.4 2.5-.3.8-.7 1.4-1.2 2-.5.6-1.2 1-1.9 1.3-.8.3-1.7.5-2.6.5zm0-2.1c.6 0 1.1-.1 1.5-.4.4-.2.8-.6 1.1-1 .3-.4.5-.9.6-1.4.1-.5.2-1 .2-1.5s-.1-1-.2-1.5-.3-1-.6-1.4c-.3-.4-.6-.7-1.1-1-.4-.2-.9-.4-1.5-.4s-1.1.1-1.5.4c-.4.2-.8.6-1.1 1-.3.4-.5.8-.6 1.4-.1.5-.2 1-.2 1.5s.1 1 .2 1.5.3 1 .6 1.4c.3.4.6.7 1.1 1 .4.3.9.4 1.5.4zM197.2 19.3h2v-1c0-.8.1-1.4.3-1.8.2-.5.4-.8.7-1.1.3-.3.7-.4 1.1-.5.4-.1.8-.1 1.2-.1.8 0 1.5.1 1.9.2v2.1c-.2 0-.4-.1-.5-.1h-.7c-.4 0-.7.1-.9.3-.3.2-.4.5-.4 1v1.2h2.2v2h-2.2v10h-2.6v-10h-2v-2.2zM207.2 26c0 .5.1.9.2 1.3s.3.8.6 1.1c.3.3.6.6 1 .8.4.2.9.3 1.4.3.8 0 1.4-.2 1.9-.5s.8-.8 1.1-1.5h2.5c-.1.6-.4 1.2-.7 1.7-.3.5-.7.9-1.2 1.3-.5.3-1 .6-1.6.8-.6.2-1.2.3-1.9.3-.9 0-1.8-.2-2.5-.5s-1.3-.7-1.8-1.3c-.5-.6-.9-1.2-1.1-2-.3-.8-.4-1.6-.4-2.5 0-.8.1-1.7.4-2.4.3-.8.7-1.4 1.2-2 .5-.6 1.1-1 1.8-1.4.7-.3 1.5-.5 2.4-.5.9 0 1.8.2 2.5.6.7.4 1.4.9 1.9 1.6.5.6.9 1.4 1.1 2.2.2.8.3 1.7.2 2.6h-9zm6.2-1.8c0-.4-.1-.8-.3-1.2-.1-.4-.3-.7-.6-1-.3-.3-.6-.5-.9-.7-.4-.2-.8-.3-1.2-.3-.5 0-.9.1-1.3.2-.4.2-.7.4-1 .7-.3.3-.5.6-.6 1-.2.4-.3.8-.3 1.3h6.2zM217.6 19.3h2.5v2.3c.1-.3.2-.6.5-1 .2-.3.5-.6.8-.8.3-.3.7-.5 1.1-.6.4-.2.8-.2 1.2-.2h1v2.5c-.2 0-.4-.1-.6-.1h-.6c-.4 0-.9.1-1.3.3-.4.2-.7.4-1 .8-.3.3-.5.8-.7 1.3-.2.5-.3 1.1-.3 1.8v5.7h-2.6v-12z" fill="#fff"/><path d="M62.4 37.6L67.3 50l4.9-12.4h2v14.2h-1.3V39.5l-4.8 12.3h-1.3l-4.9-12.3v12.3h-1.3V37.6h1.8zM77.5 48.4c.1.5.3.9.6 1.3s.6.7 1.1 1c.4.3.9.4 1.5.4.9 0 1.6-.2 2.1-.7.5-.5.9-1.1 1.1-1.9h1.3c-.3 1.2-.8 2.1-1.5 2.7-.7.6-1.7 1-3 1-.8 0-1.5-.1-2.1-.4-.6-.3-1.1-.7-1.4-1.2-.4-.5-.6-1.1-.8-1.7-.2-.7-.3-1.3-.3-2.1 0-.7.1-1.3.3-2 .2-.6.5-1.2.8-1.7.4-.5.9-.9 1.4-1.2.6-.3 1.3-.5 2.1-.5s1.5.2 2.1.5c.6.3 1.1.8 1.4 1.3.4.5.6 1.2.8 1.8.2.7.2 1.4.2 2.1h-7.9c0 .3.1.8.2 1.3zm6.2-3.9l-.6-1.2c-.3-.3-.6-.6-1-.8-.4-.2-.8-.3-1.3-.3s-1 .1-1.4.3c-.4.2-.7.5-1 .8-.3.3-.5.7-.7 1.2-.2.4-.3.9-.3 1.4H84c0-.5-.1-.9-.3-1.4zM94.7 51.7v-1.9c-.1.3-.3.6-.6.9-.3.3-.6.5-.9.7-.3.2-.7.3-1.1.4-.4.2-.7.2-1.1.2-.8 0-1.5-.1-2-.4-.6-.3-1.1-.7-1.4-1.2-.4-.5-.7-1.1-.9-1.7-.2-.7-.3-1.3-.3-2.1s.1-1.4.3-2.1c.2-.7.5-1.2.9-1.7s.9-.9 1.4-1.2c.6-.3 1.3-.4 2-.4.4 0 .8 0 1.1.1.4.1.7.2 1 .4.3.2.6.4.8.7.2.3.4.6.6 1v-5.9h1.3v14.2h-1.1zm-6.9-3.5c.1.5.3 1 .6 1.4.3.4.6.7 1 1 .4.3.9.4 1.5.4.7 0 1.2-.1 1.7-.4.5-.3.8-.6 1.1-1 .3-.4.5-.9.6-1.4.1-.5.2-1 .2-1.6 0-.5-.1-1.1-.2-1.6s-.3-1-.6-1.4c-.3-.4-.7-.7-1.1-1-.5-.3-1-.4-1.7-.4-.6 0-1.1.1-1.5.4-.4.3-.8.6-1 1-.3.4-.5.9-.6 1.4-.1.5-.2 1-.2 1.6 0 .6.1 1.1.2 1.6zM99.4 37.6v2h-1.3v-2h1.3zm0 3.9v10.2h-1.3V41.5h1.3zM108 42.9c-.5-.4-1.1-.7-1.9-.7-.6 0-1.1.1-1.6.4-.5.3-.8.6-1.1 1-.3.4-.5.9-.7 1.4-.2.5-.2 1.1-.2 1.6s.1 1.1.2 1.6c.2.5.4 1 .7 1.4.3.4.7.7 1.1 1 .4.3 1 .4 1.6.4.4 0 .7-.1 1.1-.2.3-.1.6-.3.9-.6.3-.3.5-.6.7-.9.2-.4.3-.7.3-1.2h1.3c-.2 1.2-.6 2.2-1.4 2.9-.7.7-1.7 1-2.9 1-.8 0-1.5-.1-2.1-.4-.6-.3-1.1-.7-1.5-1.2-.4-.5-.7-1.1-.9-1.7-.2-.7-.3-1.4-.3-2.1s.1-1.4.3-2.1c.2-.7.5-1.2.9-1.7s.9-.9 1.5-1.2c.6-.3 1.3-.4 2.1-.4 1.1 0 2 .3 2.8.9.8.6 1.2 1.5 1.4 2.6H109c-.3-.8-.6-1.4-1-1.8zM112.1 43.1c.2-.4.5-.8.9-1.1.4-.3.8-.5 1.3-.6.5-.1 1-.2 1.6-.2.5 0 .9 0 1.3.1s.9.2 1.2.5c.4.2.6.6.9 1 .2.4.3 1 .3 1.7v5.4c0 .5.2.8.7.8.1 0 .3 0 .4-.1v1.1c-.1 0-.3 0-.4.1h-.4c-.3 0-.6 0-.8-.1-.2-.1-.3-.2-.4-.4-.1-.2-.2-.3-.2-.6V50c-.2.3-.5.6-.7.9-.2.3-.5.5-.8.6-.3.2-.6.3-1 .4-.4.1-.8.1-1.3.1s-.9-.1-1.3-.2-.8-.3-1.1-.5c-.3-.2-.6-.6-.7-.9-.2-.4-.3-.8-.3-1.3 0-.7.2-1.3.5-1.7.3-.4.7-.7 1.3-.9.5-.2 1.1-.4 1.8-.4.7-.1 1.3-.2 2-.2.3 0 .5-.1.7-.1.2 0 .4-.1.5-.2.1-.1.2-.2.3-.4.1-.2.1-.4.1-.7 0-.4-.1-.8-.2-1-.1-.3-.3-.5-.6-.6-.2-.2-.5-.3-.9-.3-.3-.1-.7-.1-1-.1-.8 0-1.4.2-1.9.6-.5.4-.8 1-.8 1.8h-1.3c0-.9.1-1.4.3-1.8zm6.3 3c-.1.1-.2.3-.5.3-.2.1-.4.1-.6.1-.5.1-1.1.2-1.6.2-.6.1-1.1.2-1.5.3-.5.1-.8.4-1.1.6-.3.3-.4.7-.4 1.2 0 .3.1.6.2.8.1.2.3.5.5.6.2.2.5.3.7.4.3.1.6.1.9.1.5 0 .9-.1 1.4-.2.4-.1.8-.4 1.1-.6.3-.3.6-.6.8-1 .2-.4.3-.8.3-1.4l-.2-1.4zM123.4 37.6v14.2h-1.3V37.6h1.3zM136.6 37.6c.6 0 1.1.1 1.7.2.5.1 1 .4 1.4.7.4.3.7.7.9 1.2.2.5.3 1 .3 1.7 0 .9-.2 1.7-.7 2.3-.5.7-1.2 1.1-2.1 1.3.5.1.8.2 1.2.4.3.2.6.4.7.7.2.3.3.6.4 1 .1.4.1.8.2 1.2v.9c0 .3 0 .7.1 1 0 .4.1.7.2 1 .1.3.2.6.3.7h-1.5c-.1-.1-.1-.3-.2-.5 0-.2-.1-.4-.1-.6v-.6-.5c0-.5-.1-1-.1-1.5-.1-.5-.2-.9-.4-1.3s-.5-.7-.8-.9c-.4-.2-.9-.3-1.5-.3h-5.1V52h-1.4V37.6h6.5zm-.1 6.7c.4 0 .8-.1 1.2-.2.4-.1.7-.3 1-.5.3-.2.5-.5.7-.9.2-.3.2-.7.2-1.2 0-.9-.3-1.6-.8-2.1s-1.3-.8-2.3-.8h-5v5.6h5zM144 48.4c.1.5.3.9.6 1.3s.6.7 1.1 1c.4.3.9.4 1.5.4.9 0 1.6-.2 2.1-.7.5-.5.9-1.1 1.1-1.9h1.3c-.3 1.2-.8 2.1-1.5 2.7-.7.6-1.7 1-3 1-.8 0-1.5-.1-2.1-.4-.6-.3-1.1-.7-1.4-1.2-.4-.5-.6-1.1-.8-1.7-.2-.7-.3-1.3-.3-2.1 0-.7.1-1.3.3-2 .2-.6.5-1.2.8-1.7.4-.5.8-.9 1.4-1.2.6-.3 1.3-.5 2.1-.5s1.5.2 2.1.5c.6.3 1.1.8 1.4 1.3.4.5.6 1.2.8 1.8.2.7.2 1.4.2 2.1h-7.9c0 .3 0 .8.2 1.3zm6.2-3.9l-.6-1.2c-.3-.3-.6-.6-1-.8-.4-.2-.8-.3-1.4-.3-.5 0-1 .1-1.4.3-.4.2-.7.5-1 .8-.3.3-.5.7-.7 1.2-.2.4-.3.9-.3 1.4h6.6c0-.5-.1-.9-.2-1.4zM159.1 43.5c-.1-.3-.3-.5-.6-.7-.2-.2-.5-.3-.8-.4-.3-.1-.7-.1-1-.1-.3 0-.6 0-.8.1-.3.1-.5.2-.8.3-.2.1-.4.3-.6.5-.1.2-.2.5-.2.8 0 .3.1.5.2.7.1.2.3.4.5.5.2.1.4.2.7.3.3.1.5.2.7.2l1.7.4c.4.1.7.1 1.1.3.4.1.7.3.9.5.3.2.5.5.7.8.2.3.3.7.3 1.2 0 .6-.1 1-.4 1.4-.3.4-.6.7-1 1-.4.2-.8.4-1.3.5-.5.1-1 .2-1.4.2-1.2 0-2.2-.3-2.9-.9-.7-.6-1.2-1.5-1.3-2.7h1.3c.1.8.4 1.5.9 1.9.6.4 1.3.6 2.1.6.3 0 .6 0 .9-.1l.9-.3c.3-.2.5-.4.7-.6.2-.2.3-.5.3-.9 0-.3-.1-.6-.2-.8-.1-.2-.3-.4-.5-.5-.2-.1-.5-.3-.7-.3-.3-.1-.5-.2-.8-.2l-1.6-.4c-.4-.1-.8-.2-1.1-.4-.3-.1-.6-.3-.9-.5-.3-.2-.5-.5-.6-.8-.1-.3-.2-.7-.2-1.1 0-.5.1-1 .3-1.3.2-.4.5-.7.9-.9.4-.2.8-.4 1.2-.5.5-.1.9-.2 1.4-.2.5 0 1 .1 1.4.2.4.1.8.3 1.2.6.3.3.6.6.8 1 .2.4.3.9.3 1.5h-1.3c-.1-.3-.2-.6-.4-.9zM163.6 48.4c.1.5.3.9.6 1.3s.6.7 1.1 1c.4.3.9.4 1.5.4.9 0 1.6-.2 2.1-.7.5-.5.9-1.1 1.1-1.9h1.3c-.3 1.2-.8 2.1-1.5 2.7-.7.6-1.7 1-3 1-.8 0-1.5-.1-2.1-.4-.6-.3-1.1-.7-1.4-1.2-.4-.5-.6-1.1-.8-1.7-.2-.7-.3-1.3-.3-2.1 0-.7.1-1.3.3-2 .2-.6.5-1.2.8-1.7.4-.5.8-.9 1.4-1.2.6-.3 1.3-.5 2.1-.5s1.5.2 2.1.5c.6.3 1.1.8 1.4 1.3.4.5.6 1.2.8 1.8.2.7.2 1.4.2 2.1h-7.9c0 .3.1.8.2 1.3zm6.2-3.9l-.6-1.2c-.3-.3-.6-.6-1-.8-.4-.2-.8-.3-1.3-.3s-1 .1-1.4.3c-.4.2-.7.5-1 .8-.3.3-.5.7-.7 1.2-.2.4-.3.9-.3 1.4h6.6c0-.5-.1-.9-.3-1.4zM173.2 43.1c.2-.4.5-.8.9-1.1.4-.3.8-.5 1.3-.6.5-.1 1-.2 1.6-.2.4 0 .9 0 1.3.1.5.1.9.2 1.2.5.4.2.6.6.9 1 .2.4.3 1 .3 1.7v5.4c0 .5.2.8.7.8.1 0 .3 0 .4-.1v1.1c-.1 0-.3 0-.4.1h-.4c-.3 0-.6 0-.8-.1-.2-.1-.3-.2-.4-.4-.1-.2-.2-.3-.2-.6V50c-.2.3-.5.6-.7.9-.2.3-.5.5-.8.6-.3.2-.6.3-1 .4-.4.1-.8.1-1.3.1s-.9-.1-1.3-.2-.8-.3-1.1-.5c-.3-.2-.6-.6-.7-.9-.2-.4-.3-.8-.3-1.3 0-.7.2-1.3.5-1.7.3-.4.7-.7 1.3-.9.5-.2 1.1-.4 1.8-.4.7-.1 1.3-.2 2-.2.3 0 .5-.1.7-.1.2 0 .4-.1.5-.2.1-.1.2-.2.3-.4.1-.2.1-.4.1-.7 0-.4-.1-.8-.2-1-.1-.3-.3-.5-.6-.6-.2-.2-.5-.3-.9-.3-.3-.1-.7-.1-1-.1-.8 0-1.4.2-1.9.6-.5.4-.8 1-.8 1.8h-1.3c-.1-.9 0-1.4.3-1.8zm6.2 3c-.1.1-.2.3-.5.3-.2.1-.4.1-.6.1-.5.1-1.1.2-1.6.2-.6.1-1.1.2-1.5.3-.5.1-.8.4-1.1.6-.3.3-.4.7-.4 1.2 0 .3.1.6.2.8.1.2.3.5.5.6.2.2.5.3.7.4.3.1.6.1.9.1.5 0 .9-.1 1.4-.2.4-.1.8-.4 1.1-.6.3-.3.6-.6.8-1 .2-.4.3-.8.3-1.4l-.2-1.4zM184.3 41.5v2.4c.3-.8.8-1.5 1.5-1.9.7-.4 1.5-.7 2.4-.6v1.3c-.6 0-1.1.1-1.5.2-.5.2-.9.4-1.2.8-.3.3-.6.7-.8 1.2-.2.5-.3 1-.3 1.5v5.5h-1.3V41.5h1.2zM195.2 42.9c-.5-.4-1.1-.7-1.9-.7-.6 0-1.1.1-1.6.4-.4.3-.8.6-1.1 1-.3.4-.5.9-.7 1.4-.2.5-.2 1.1-.2 1.6s.1 1.1.2 1.6c.2.5.4 1 .7 1.4.3.4.7.7 1.1 1 .5.3 1 .4 1.6.4.4 0 .7-.1 1.1-.2.3-.1.6-.3.9-.6.3-.3.5-.6.7-.9.2-.4.3-.7.3-1.2h1.3c-.2 1.2-.6 2.2-1.4 2.9-.7.7-1.7 1-2.9 1-.8 0-1.5-.1-2.1-.4-.6-.3-1.1-.7-1.5-1.2-.4-.5-.7-1.1-.9-1.7-.2-.7-.3-1.4-.3-2.1s.1-1.4.3-2.1c.2-.7.5-1.2.9-1.7s.9-.9 1.5-1.2c.6-.3 1.3-.4 2.1-.4 1.1 0 2 .3 2.8.9.8.6 1.2 1.5 1.4 2.6h-1.3c-.2-.8-.6-1.4-1-1.8zM200.3 37.6v5.7c.2-.6.7-1.1 1.3-1.5.6-.4 1.3-.6 2-.6s1.3.1 1.8.3c.5.2.9.4 1.2.8.3.3.5.8.6 1.2.1.5.2 1 .2 1.6v6.6h-1.3v-6.4c0-.4 0-.8-.1-1.2-.1-.4-.2-.7-.4-1-.2-.3-.5-.5-.8-.7-.3-.2-.8-.2-1.3-.2s-1 .1-1.3.3c-.4.2-.7.4-1 .7-.3.3-.5.7-.6 1.1-.2.4-.2.9-.2 1.4v6h-1.3V37.6h1.2zM215.7 37.6v14.2h-1.4V37.6h1.4zM219.7 41.5v1.8c.2-.6.7-1.1 1.3-1.5.6-.4 1.3-.6 2-.6s1.3.1 1.8.3c.5.2.9.4 1.2.8.3.3.5.8.6 1.2.1.5.2 1 .2 1.6v6.6h-1.3v-6.4c0-.4 0-.8-.1-1.2-.1-.4-.2-.7-.4-1-.2-.3-.5-.5-.8-.7-.3-.2-.8-.2-1.3-.2s-1 .1-1.3.3c-.4.2-.7.4-1 .7-.3.3-.5.7-.6 1.1-.2.4-.2.9-.2 1.4v6h-1.3V41.5h1.2zM235.2 43.5c-.1-.3-.3-.5-.6-.7-.2-.2-.5-.3-.8-.4-.3-.1-.7-.1-1-.1-.3 0-.6 0-.8.1-.3.1-.5.2-.8.3-.2.1-.4.3-.6.5-.1.2-.2.5-.2.8 0 .3.1.5.2.7.1.2.3.4.5.5.2.1.4.2.7.3.3.1.5.2.7.2l1.7.4c.4.1.7.1 1.1.3.4.1.7.3.9.5.3.2.5.5.7.8.2.3.3.7.3 1.2 0 .6-.1 1-.4 1.4-.3.4-.6.7-1 1-.4.2-.8.4-1.3.5-.5.1-1 .2-1.4.2-1.2 0-2.2-.3-2.9-.9-.7-.6-1.2-1.5-1.3-2.7h1.3c.1.8.4 1.5.9 1.9.6.4 1.3.6 2.1.6.3 0 .6 0 .9-.1l.9-.3c.3-.2.5-.4.7-.6.2-.2.3-.5.3-.9 0-.3-.1-.6-.2-.8-.1-.2-.3-.4-.5-.5-.2-.1-.5-.3-.7-.3-.3-.1-.5-.2-.8-.2l-1.6-.4c-.4-.1-.8-.2-1.1-.4-.3-.1-.6-.3-.9-.5-.3-.2-.5-.5-.6-.8-.1-.3-.2-.7-.2-1.1 0-.5.1-1 .3-1.3.2-.4.5-.7.9-.9.4-.2.8-.4 1.2-.5.5-.1.9-.2 1.4-.2.5 0 1 .1 1.4.2.4.1.8.3 1.2.6.3.3.6.6.8 1 .2.4.3.9.3 1.5h-1.3c-.2-.3-.3-.6-.4-.9zM243 41.5v1.1h-2.1v6.9c0 .4.1.7.2 1 .1.2.4.4.8.4s.7 0 1.1-.1v1.1h-1.2c-.8 0-1.4-.2-1.7-.5-.3-.3-.5-.9-.5-1.8v-7h-1.8v-1.1h1.8v-3.1h1.3v3.1h2.1zM246.2 37.6v2h-1.3v-2h1.3zm0 3.9v10.2h-1.3V41.5h1.3zM252.7 41.5v1.1h-2.1v6.9c0 .4.1.7.2 1 .1.2.4.4.8.4s.7 0 1.1-.1v1.1h-1.2c-.8 0-1.4-.2-1.7-.5-.3-.3-.5-.9-.5-1.8v-7h-1.8v-1.1h1.8v-3.1h1.3v3.1h2.1zM261.8 51.7v-1.8c-.3.7-.8 1.2-1.4 1.6-.6.4-1.3.5-2.1.5-.6 0-1.2-.1-1.7-.3-.5-.2-.8-.4-1.1-.8-.3-.3-.5-.7-.6-1.2-.1-.5-.2-1-.2-1.6v-6.7h1.3v6.7c0 .9.2 1.6.6 2.1.4.5 1.1.7 2.1.7.5 0 1-.1 1.4-.3.4-.2.7-.5 1-.9.3-.4.4-.8.6-1.3.1-.5.2-1 .2-1.5v-5.4h1.3v10.2h-1.4zM269.5 41.5v1.1h-2.1v6.9c0 .4.1.7.2 1 .1.2.4.4.8.4s.7 0 1.1-.1v1.1h-1.2c-.8 0-1.4-.2-1.7-.5-.3-.3-.5-.9-.5-1.8v-7h-1.8v-1.1h1.8v-3.1h1.3v3.1h2.1zM272.3 48.4c.1.5.3.9.6 1.3s.6.7 1.1 1c.4.3.9.4 1.5.4.9 0 1.6-.2 2.1-.7.5-.5.9-1.1 1.1-1.9h1.3c-.3 1.2-.8 2.1-1.5 2.7-.7.6-1.7 1-3 1-.8 0-1.5-.1-2.1-.4-.6-.3-1.1-.7-1.4-1.2-.4-.5-.6-1.1-.8-1.7s-.3-1.3-.3-2.1c0-.7.1-1.3.3-2 .2-.6.5-1.2.8-1.7.4-.5.8-.9 1.4-1.2.6-.3 1.3-.5 2.1-.5s1.5.2 2.1.5c.6.3 1.1.8 1.4 1.3.4.5.6 1.2.8 1.8.2.7.2 1.4.2 2.1h-7.9c0 .3.1.8.2 1.3zm6.2-3.9l-.6-1.2c-.3-.3-.6-.6-1-.8-.4-.2-.8-.3-1.4-.3-.5 0-1 .1-1.4.3-.4.2-.7.5-1 .8-.3.3-.5.7-.7 1.2-.2.4-.3.9-.3 1.4h6.6c0-.5-.1-.9-.2-1.4z" fill="#fff"/><path class="st0" d="M4.2 28.2c1.6-.9 18.6-10.8 20.2-11.7 1.6.9 18.7 10.7 20.3 11.6v16.6c2.2-1.2 3.7-2.2 4.2-2.4V14.1C47 13 26.3 1.1 24.4 0 22.5 1.1 1.9 13 0 14.1v28.2c.5.3 2.1 1.2 4.2 2.4V28.2z" fill="#fff"/><path class="st0" d="M10.6 43.6c1.1-.6 12.7-7.4 13.8-8 1.1.6 12.7 7.3 13.8 7.9v9.3c2.2-1.3 3.9-2.3 4.4-2.5V29.4L24.4 19c-1.4.7-16.7 9.6-18.1 10.4v21c.4.2 2.1 1.2 4.3 2.5v-9.3z" fill="#fff"/><path class="st0" d="M24.4 38c.9.5 10.8 6.2 11.7 6.7v13.5c-.9.5-10.8 6.2-11.7 6.8-.9-.5-10.8-6.2-11.7-6.7V44.8c.9-.6 10.8-6.3 11.7-6.8z" fill="#fff"/></svg>